<svg id="Layer_1" data-name="Layer 1" xmlns="http://www.w3.org/2000/svg" viewBox="0 0 274 48"><defs><style>.cls-1,.cls-2{fill:#2f3034;}.cls-2{stroke:#6d7777;stroke-linecap:round;stroke-linejoin:round;stroke-width:0.5px;}</style></defs><title>OBC-logo-3</title><path class="cls-1" d="M48.38,17.28l3,0,0,5.12,5.89,0,0-5.12,3,0L60.4,31l-3,0,0-5.94-5.89,0,0,5.94-3,0Z"/><path class="cls-1" d="M66.35,25.07l-5.21-7.85,3.77,0,2.94,5.13,3.06-5.16,3.59,0-5.12,7.91,0,5.86-3,0Z"/><path class="cls-1" d="M75.32,17.14l5.11,0a10,10,0,0,1,2,.18,4.63,4.63,0,0,1,1.67.66,3.4,3.4,0,0,1,1.13,1.28,4.39,4.39,0,0,1,.43,2,4.69,4.69,0,0,1-.38,2,3.33,3.33,0,0,1-1.06,1.31,4.32,4.32,0,0,1-1.61.7,9.43,9.43,0,0,1-2,.21H78.4l0,5.36-3,0Zm3.06,5.81h2a3.9,3.9,0,0,0,.79-0.08,2.1,2.1,0,0,0,.68-0.27,1.4,1.4,0,0,0,.48-0.51,1.6,1.6,0,0,0,.18-0.81,1.37,1.37,0,0,0-.25-0.84,1.61,1.61,0,0,0-.62-0.49,2.69,2.69,0,0,0-.85-0.22,8.63,8.63,0,0,0-.89,0H78.37Z"/><path class="cls-1" d="M87.49,17.08l9.34,0v2.79l-6.31,0v2.56l6,0v2.79l-6,0V28l6.66,0v2.79l-9.69.05Z"/><path class="cls-1" d="M99.41,17l5.32,0a9.35,9.35,0,0,1,2,.19,4.76,4.76,0,0,1,1.66.67,3.4,3.4,0,0,1,1.13,1.28,4.35,4.35,0,0,1,.43,2,4,4,0,0,1-.75,2.48,3.41,3.41,0,0,1-2.21,1.3l3.53,5.79-3.63,0L104,25.24h-1.5l0,5.49-3,0Zm3.06,5.67h1.79l0.86,0a2.72,2.72,0,0,0,.82-0.18,1.43,1.43,0,0,0,.61-0.46,1.4,1.4,0,0,0,.24-0.87,1.46,1.46,0,0,0-.22-0.83,1.42,1.42,0,0,0-.55-0.47,2.43,2.43,0,0,0-.76-0.22,6.13,6.13,0,0,0-.84-0.05h-2Z"/><path class="cls-1" d="M111.92,16.95l3,0L115,27.88l5.61,0v2.79l-8.64,0Z"/><path class="cls-1" d="M122.16,16.89l9.34,0v2.79l-6.31,0v2.56l6,0V25l-6,0v2.8l6.66,0v2.79l-9.69.05Z"/><path class="cls-1" d="M134.09,16.83l4.55,0a13.06,13.06,0,0,1,3.14.35,7.2,7.2,0,0,1,2.6,1.18,5.85,5.85,0,0,1,1.77,2.13,7.19,7.19,0,0,1,.67,3.2,6.52,6.52,0,0,1-.62,2.94,6.31,6.31,0,0,1-1.69,2.14A7.53,7.53,0,0,1,142,30.09a9.58,9.58,0,0,1-2.93.46l-5,0Zm3.09,10.93h1.57a8.49,8.49,0,0,0,2-.22,4.18,4.18,0,0,0,1.56-.72,3.38,3.38,0,0,0,1-1.3,4.61,4.61,0,0,0,.37-2,3.84,3.84,0,0,0-.39-1.75,3.5,3.5,0,0,0-1-1.23,4.46,4.46,0,0,0-1.51-.72,6.69,6.69,0,0,0-1.82-.23h-1.79Z"/><path class="cls-1" d="M161.16,29.46a11,11,0,0,1-2.79,1,14.26,14.26,0,0,1-3,.33,8.51,8.51,0,0,1-3-.49,6.79,6.79,0,0,1-2.36-1.43,6.53,6.53,0,0,1-1.56-2.27,8.35,8.35,0,0,1,0-6A6.55,6.55,0,0,1,150,18.35a6.79,6.79,0,0,1,2.34-1.46,8.44,8.44,0,0,1,3-.52,11,11,0,0,1,3,.38,6,6,0,0,1,2.45,1.36l-2.12,2.34a4.27,4.27,0,0,0-1.4-1,5,5,0,0,0-1.94-.32,4.5,4.5,0,0,0-1.76.34,4,4,0,0,0-1.35.93,4.07,4.07,0,0,0-.86,1.41,5.36,5.36,0,0,0,0,3.54,4.08,4.08,0,0,0,.87,1.39,4,4,0,0,0,1.36.92,4.52,4.52,0,0,0,1.76.32,5.81,5.81,0,0,0,1.71-.23,6.33,6.33,0,0,0,1.14-.46V25.09h-2.47v-2.8l5.38,0Z"/><path class="cls-1" d="M163.67,16.68l9.34,0v2.79l-6.31,0V22l6,0v2.79l-6,0v2.8l6.66,0v2.79l-9.69.05Z"/><path class="cls-1" d="M175.6,16.61l5.32,0a9.31,9.31,0,0,1,2,.19,4.76,4.76,0,0,1,1.66.67,3.39,3.39,0,0,1,1.13,1.28,4.34,4.34,0,0,1,.43,2,4,4,0,0,1-.75,2.48,3.42,3.42,0,0,1-2.21,1.3l3.53,5.79-3.63,0-2.9-5.48h-1.5l0,5.49-3,0Zm3.06,5.67h1.79l0.86,0a2.69,2.69,0,0,0,.82-0.18,1.42,1.42,0,0,0,.61-0.46,1.39,1.39,0,0,0,.24-0.87,1.46,1.46,0,0,0-.22-0.83,1.43,1.43,0,0,0-.55-0.47,2.4,2.4,0,0,0-.76-0.22,6.13,6.13,0,0,0-.84-0.05h-2Z"/><path class="cls-1" d="M193.75,17.4l3.82,0a8.13,8.13,0,0,1,1.7.16,4.21,4.21,0,0,1,1.44.57,3,3,0,0,1,1,1.08,3.47,3.47,0,0,1,.38,1.68,3.44,3.44,0,0,1-.39,1.75,3.11,3.11,0,0,1-1,1.09,4.2,4.2,0,0,1-1.37.57,6.61,6.61,0,0,1-1.42.17h-2.58l0,5.78h-1.53Zm1.56,5.66h2.58a3.11,3.11,0,0,0,1.86-.53,1.85,1.85,0,0,0,.71-1.61,1.85,1.85,0,0,0-.73-1.6,3.12,3.12,0,0,0-1.87-.51h-2.58Z"/><path class="cls-1" d="M204.35,17.34l3.29,0a15.52,15.52,0,0,1,1.85.1,5,5,0,0,1,1.65.46,3,3,0,0,1,1.19,1.06,3.45,3.45,0,0,1,.46,1.89,3.13,3.13,0,0,1-.84,2.29,4.08,4.08,0,0,1-2.36,1.12l3.69,5.9H211.4l-3.52-5.76h-2l0,5.78h-1.53ZM205.91,23h1.36c0.42,0,.86,0,1.32,0a4.53,4.53,0,0,0,1.25-.24,2.2,2.2,0,0,0,.94-0.63,1.81,1.81,0,0,0,.37-1.23,2,2,0,0,0-.28-1.11,1.85,1.85,0,0,0-.72-0.64,3.06,3.06,0,0,0-1-.29,8.54,8.54,0,0,0-1.12-.07h-2.14Z"/><path class="cls-1" d="M221.33,30.44a7,7,0,0,1-2.7-.49,6.49,6.49,0,0,1-2.13-1.4,6.32,6.32,0,0,1-1.41-2.14A7.53,7.53,0,0,1,215,21a6.35,6.35,0,0,1,1.39-2.15,6.49,6.49,0,0,1,2.12-1.42,7.42,7.42,0,0,1,5.4,0,6.49,6.49,0,0,1,2.13,1.4A6.32,6.32,0,0,1,227.5,21a7.52,7.52,0,0,1,0,5.39,6.32,6.32,0,0,1-1.39,2.15A6.49,6.49,0,0,1,224,29.92,7,7,0,0,1,221.33,30.44Zm0-1.42a5,5,0,0,0,2.06-.43,4.85,4.85,0,0,0,1.6-1.15,5.23,5.23,0,0,0,1-1.7,6,6,0,0,0,0-4.16,5.2,5.2,0,0,0-1.05-1.69,4.87,4.87,0,0,0-1.62-1.14,5.29,5.29,0,0,0-4.13,0,4.89,4.89,0,0,0-1.6,1.15,5.24,5.24,0,0,0-1,1.7,6,6,0,0,0,0,4.16,5.19,5.19,0,0,0,1.05,1.69,4.86,4.86,0,0,0,1.61,1.14A5,5,0,0,0,221.32,29Z"/><path class="cls-1" d="M235.87,26.71a4.5,4.5,0,0,1-.18,1.3,3.33,3.33,0,0,1-.61,1.17,3.11,3.11,0,0,1-1.12.86,4.09,4.09,0,0,1-1.73.34,3.65,3.65,0,0,1-2.28-.68,3.21,3.21,0,0,1-1.17-2.06l1.52-.32a2.14,2.14,0,0,0,.63,1.21,1.84,1.84,0,0,0,1.3.44,2.17,2.17,0,0,0,1.07-.24,1.72,1.72,0,0,0,.64-0.62,2.63,2.63,0,0,0,.31-0.88,5.74,5.74,0,0,0,.08-1l0-9h1.53Z"/><path class="cls-1" d="M238.83,17.16l8.09,0v1.42l-6.56,0,0,4,6.13,0V24l-6.12,0,0,4.58,6.89,0V30l-8.42,0Z"/><path class="cls-1" d="M258.46,19.71A3.68,3.68,0,0,0,257,18.55a4.25,4.25,0,0,0-1.78-.38,4.46,4.46,0,0,0-2,.45,4.93,4.93,0,0,0-1.55,1.18,5.38,5.38,0,0,0-1,1.71,5.72,5.72,0,0,0-.35,2,5.93,5.93,0,0,0,.37,2.1,5.23,5.23,0,0,0,1,1.68,4.74,4.74,0,0,0,1.55,1.13,5,5,0,0,0,4.1-.07A4.78,4.78,0,0,0,259,27l1.15,1a5.29,5.29,0,0,1-2.09,1.72,6.74,6.74,0,0,1-2.77.56,6.54,6.54,0,0,1-2.58-.5,6.36,6.36,0,0,1-2.09-1.4,6.49,6.49,0,0,1-1.39-2.13,7.13,7.13,0,0,1-.51-2.7,7.23,7.23,0,0,1,.47-2.66,6.39,6.39,0,0,1,6-4.14,6.88,6.88,0,0,1,2.52.46,4.65,4.65,0,0,1,2,1.53Z"/><path class="cls-1" d="M270.69,18.41l-4.25,0,0.06,11.44H265l-0.06-11.44-4.25,0V17l10-.05v1.42Z"/><polygon class="cls-2" points="7.89 11 13.87 6.47 7.84 2 7.89 11"/><polygon class="cls-2" points="7.94 20 13.91 15.47 7.89 11 7.94 20"/><polygon class="cls-2" points="7.99 29 13.96 24.47 7.94 20 7.99 29"/><polygon class="cls-2" points="8.03 38 14.01 33.47 7.99 29 8.03 38"/><polygon class="cls-2" points="14.01 33.47 8.03 38 14.06 42.47 14.01 33.47"/><polygon class="cls-2" points="13.96 24.47 7.99 29 14.01 33.47 13.96 24.47"/><polygon class="cls-2" points="13.91 15.47 7.94 20 13.96 24.47 13.91 15.47"/><polygon class="cls-2" points="13.87 6.47 7.89 11 13.91 15.47 13.87 6.47"/><polygon class="cls-2" points="2.01 33.53 8.03 38 2.06 42.53 2.01 33.53"/><polygon class="cls-2" points="1.96 24.53 7.99 29 2.01 33.53 1.96 24.53"/><polygon class="cls-2" points="1.91 15.53 7.94 20 1.96 24.53 1.91 15.53"/><polygon class="cls-2" points="1.87 6.53 7.89 11 1.91 15.53 1.87 6.53"/><polygon class="cls-2" points="7.89 11 1.87 6.53 7.84 2 7.89 11"/><polygon class="cls-2" points="7.94 20 1.91 15.53 7.89 11 7.94 20"/><polygon class="cls-2" points="7.99 29 1.96 24.53 7.94 20 7.99 29"/><polygon class="cls-2" points="19.98 28.94 25.96 24.41 19.94 19.94 19.98 28.94"/><polygon class="cls-2" points="25.96 24.41 19.98 28.94 26.01 33.41 25.96 24.41"/><polygon class="cls-2" points="25.91 15.41 19.94 19.94 25.96 24.41 25.91 15.41"/><polygon class="cls-2" points="13.96 24.47 19.98 28.94 14.01 33.47 13.96 24.47"/><polygon class="cls-2" points="13.91 15.47 19.94 19.94 13.96 24.47 13.91 15.47"/><polygon class="cls-2" points="19.98 28.94 13.96 24.47 19.94 19.94 19.98 28.94"/><polygon class="cls-2" points="8.03 38 2.01 33.53 7.99 29 8.03 38"/><polygon class="cls-2" points="8.08 47 14.06 42.47 8.03 38 8.08 47"/><polygon class="cls-2" points="8.08 47 2.06 42.53 8.03 38 8.08 47"/><polygon class="cls-2" points="32.03 37.87 26.05 42.41 32.08 46.87 32.03 37.87"/><polygon class="cls-2" points="31.98 28.87 26.01 33.41 32.03 37.87 31.98 28.87"/><polygon class="cls-2" points="31.94 19.87 25.96 24.41 31.98 28.87 31.94 19.87"/><polygon class="cls-2" points="31.89 10.87 25.91 15.41 31.94 19.87 31.89 10.87"/><polygon class="cls-2" points="25.91 15.41 31.89 10.87 25.87 6.41 25.91 15.41"/><polygon class="cls-2" points="25.96 24.41 31.94 19.87 25.91 15.41 25.96 24.41"/><polygon class="cls-2" points="26.01 33.41 31.98 28.87 25.96 24.41 26.01 33.41"/><polygon class="cls-2" points="26.05 42.41 32.03 37.87 26.01 33.41 26.05 42.41"/><polygon class="cls-2" points="37.91 15.34 31.89 10.87 37.87 6.34 37.91 15.34"/><polygon class="cls-2" points="37.96 24.34 31.94 19.87 37.91 15.34 37.96 24.34"/><polygon class="cls-2" points="38.01 33.34 31.98 28.87 37.96 24.34 38.01 33.34"/><polygon class="cls-2" points="38.05 42.34 32.03 37.87 38.01 33.34 38.05 42.34"/><polygon class="cls-2" points="32.03 37.87 38.05 42.34 32.08 46.87 32.03 37.87"/><polygon class="cls-2" points="31.98 28.87 38.01 33.34 32.03 37.87 31.98 28.87"/><polygon class="cls-2" points="31.94 19.87 37.96 24.34 31.98 28.87 31.94 19.87"/><polygon class="cls-2" points="31.89 10.87 37.91 15.34 31.94 19.87 31.89 10.87"/><polygon class="cls-2" points="31.84 1.87 25.87 6.41 31.89 10.87 31.84 1.87"/><polygon class="cls-2" points="31.84 1.87 37.87 6.34 31.89 10.87 31.84 1.87"/></svg>