<?xml version="1.0" encoding="UTF-8" standalone="no"?>
<svg width="170px" height="49px" viewBox="0 0 170 49" version="1.1" xmlns="http://www.w3.org/2000/svg" xmlns:xlink="http://www.w3.org/1999/xlink" xmlns:sketch="http://www.bohemiancoding.com/sketch/ns">
    <!-- Generator: Sketch 3.4.4 (17249) - http://www.bohemiancoding.com/sketch -->
    <title>OLF Logo</title>
    <desc>Created with Sketch.</desc>
    <defs>
        <path id="path-1" d="M0,0.19140625 L169.757143,0.19140625 L169.757143,49 L0,49 L0,0.19140625 Z"></path>
        <path id="path-3" d="M0,0.19140625 L169.757143,0.19140625 L169.757143,49 L0,49 L0,0.19140625 Z"></path>
    </defs>
    <g id="Welcome" stroke="none" stroke-width="1" fill="none" fill-rule="evenodd" sketch:type="MSPage">
        <g id="HOME-V3" sketch:type="MSArtboardGroup" transform="translate(-147.000000, -19.000000)">
            <g id="TOP-NAVIGATION" sketch:type="MSLayerGroup" transform="translate(-9.000000, 0.000000)">
                <g id="OLF-Logo" transform="translate(156.000000, 19.000000)">
                    <path d="M19.5260179,3.40840938 L24.1706607,0.691971875 L28.8168214,3.40840938 L28.8168214,8.84128438 L24.1706607,11.5577219 L19.5260179,8.84128438 L19.5260179,3.40840938 L19.5260179,3.40840938 Z" id="Stroke-1" stroke="#2E2F33" stroke-width="0.567" sketch:type="MSShapeGroup"></path>
                    <path d="M13.2855,5.8757125 L16.8752321,1.83780625 L22.1209464,2.96786875 L23.7784464,8.13430625 L20.1887143,12.1722125 L14.943,11.04215 L13.2855,5.8757125 L13.2855,5.8757125 Z" id="Stroke-3" stroke="#2E2F33" stroke-width="0.567" sketch:type="MSShapeGroup"></path>
                    <path d="M8.10338393,10.1754625 L10.2845446,5.21268125 L15.6198125,4.6445875 L18.7724018,9.039275 L16.5897232,14.0020562 L11.2559732,14.57015 L8.10338393,10.1754625 L8.10338393,10.1754625 Z" id="Stroke-4" stroke="#2E2F33" stroke-width="0.567" sketch:type="MSShapeGroup"></path>
                    <path d="M4.48663393,15.8867187 L5.04672321,10.4844687 L9.94788393,8.274875 L14.2859196,11.4675312 L13.7258304,16.8697812 L8.8261875,19.079375 L4.48663393,15.8867187 L4.48663393,15.8867187 Z" id="Stroke-5" stroke="#2E2F33" stroke-width="0.567" sketch:type="MSShapeGroup"></path>
                    <g id="Group-12" transform="translate(0.000000, 12.250000)" stroke="#2E2F33" stroke-width="0.567" sketch:type="MSShapeGroup">
                        <path d="M2.78936607,10.200575 L1.67374107,4.8871375 L5.65963393,1.25195 L10.7611518,2.9302 L11.8767768,8.2436375 L7.89088393,11.878825 L2.78936607,10.200575 L2.78936607,10.200575 Z" id="Stroke-6"></path>
                        <path d="M3.17778571,16.9742125 L0.495732143,12.2702125 L3.17778571,7.56468125 L8.54189286,7.56468125 L11.2239464,12.2702125 L8.54189286,16.9742125 L3.17778571,16.9742125 L3.17778571,16.9742125 Z" id="Stroke-8"></path>
                        <path d="M5.61379464,23.2947531 L1.62790179,19.6595656 L2.74352679,14.3461281 L7.84352679,12.6663469 L11.8294196,16.3015344 L10.7153125,21.6165031 L5.61379464,23.2947531 L5.61379464,23.2947531 Z" id="Stroke-10"></path>
                    </g>
                    <path d="M9.85908929,40.7935719 L4.95944643,38.5839781 L4.39783929,33.1817281 L8.73739286,29.9875406 L13.6370357,32.1971344 L14.1986429,37.6009156 L9.85908929,40.7935719 L9.85908929,40.7935719 Z" id="Stroke-13" stroke="#2E2F33" stroke-width="0.567" sketch:type="MSShapeGroup"></path>
                    <path d="M15.4979286,44.4567812 L10.1641786,43.8886875 L7.9815,38.9259062 L11.1340893,34.5312187 L16.4693571,35.0993125 L18.6505179,40.0620937 L15.4979286,44.4567812 L15.4979286,44.4567812 Z" id="Stroke-14" stroke="#2E2F33" stroke-width="0.567" sketch:type="MSShapeGroup"></path>
                    <g id="Group-21" transform="translate(12.142857, 36.750000)" stroke="#2E2F33" stroke-width="0.567" sketch:type="MSShapeGroup">
                        <path d="M9.8355625,9.4257625 L4.58984821,10.555825 L1.00011607,6.51791875 L2.65761607,1.35148125 L7.90333036,0.22141875 L11.4930625,4.259325 L9.8355625,9.4257625 L9.8355625,9.4257625 Z" id="Stroke-15"></path>
                        <path d="M16.5233929,9.03238437 L11.87875,11.7488219 L7.23258929,9.03238437 L7.23258929,3.59950937 L11.87875,0.883071875 L16.5233929,3.59950937 L16.5233929,9.03238437 L16.5233929,9.03238437 Z" id="Stroke-17"></path>
                        <path d="M22.7637589,6.56508125 L19.1740268,10.6029875 L13.9283125,9.472925 L12.2708125,4.3064875 L15.8605446,0.26858125 L21.1062589,1.39864375 L22.7637589,6.56508125 L22.7637589,6.56508125 Z" id="Stroke-19"></path>
                    </g>
                    <path d="M40.0888839,39.0153312 L37.9077232,43.9781125 L32.5724554,44.5462062 L29.4198661,40.1515187 L31.6025446,35.1887375 L36.9362946,34.6206437 L40.0888839,39.0153312 L40.0888839,39.0153312 Z" id="Stroke-22" stroke="#2E2F33" stroke-width="0.567" sketch:type="MSShapeGroup"></path>
                    <path d="M43.7056339,33.304075 L43.1455446,38.706325 L38.2443839,40.9159187 L33.9063482,37.7232625 L34.4664375,32.3210125 L39.3660804,30.1114187 L43.7056339,33.304075 L43.7056339,33.304075 Z" id="Stroke-23" stroke="#2E2F33" stroke-width="0.567" sketch:type="MSShapeGroup"></path>
                    <path d="M45.40275,26.7402188 L46.518375,32.0536563 L42.5324821,35.6888438 L37.4309643,34.0105938 L36.3153393,28.6971563 L40.3012321,25.0619688 L45.40275,26.7402188 L45.40275,26.7402188 Z" id="Stroke-24" stroke="#2E2F33" stroke-width="0.567" sketch:type="MSShapeGroup"></path>
                    <path d="M45.0143304,19.9665812 L47.6963839,24.6705812 L45.0143304,29.3761125 L39.6502232,29.3761125 L36.9681696,24.6705812 L39.6502232,19.9665812 L45.0143304,19.9665812 L45.0143304,19.9665812 Z" id="Stroke-25" stroke="#2E2F33" stroke-width="0.567" sketch:type="MSShapeGroup"></path>
                    <path d="M42.5783214,13.6460406 L46.5642143,17.2812281 L45.4485893,22.5946656 L40.3485893,24.2744469 L36.3626964,20.6392594 L37.4768036,15.3242906 L42.5783214,13.6460406 L42.5783214,13.6460406 Z" id="Stroke-26" stroke="#2E2F33" stroke-width="0.567" sketch:type="MSShapeGroup"></path>
                    <path d="M38.3330268,8.39722188 L43.2326696,10.6068156 L43.7942768,16.0090656 L39.4547232,19.2032531 L34.5550804,16.9936594 L33.9934732,11.5898781 L38.3330268,8.39722188 L38.3330268,8.39722188 Z" id="Stroke-27" stroke="#2E2F33" stroke-width="0.567" sketch:type="MSShapeGroup"></path>
                    <path d="M32.6941875,4.7340125 L38.0279375,5.30210625 L40.2106161,10.2648875 L37.0580268,14.659575 L31.7227589,14.0914812 L29.5415982,9.1287 L32.6941875,4.7340125 L32.6941875,4.7340125 Z" id="Stroke-28" stroke="#2E2F33" stroke-width="0.567" sketch:type="MSShapeGroup"></path>
                    <path d="M26.2136964,3.01503125 L31.4594107,1.88496875 L35.0491429,5.922875 L33.3916429,11.0893125 L28.1459286,12.219375 L24.5561964,8.18146875 L26.2136964,3.01503125 L26.2136964,3.01503125 Z" id="Stroke-29" stroke="#2E2F33" stroke-width="0.567" sketch:type="MSShapeGroup"></path>
                    <g id="Group-69">
                        <path d="M59.5625357,15.7391062 C59.5625357,16.3516062 59.6566429,16.913575 59.8448571,17.4204187 C60.0330714,17.9287937 60.30325,18.3697937 60.6553929,18.7434187 C61.0075357,19.1170437 61.4295,19.4079812 61.9212857,19.6162312 C62.4130714,19.8244812 62.9625357,19.9286062 63.5696786,19.9286062 C64.1768214,19.9286062 64.7262857,19.8244812 65.2180714,19.6162312 C65.7098571,19.4079812 66.1318214,19.1170437 66.4839643,18.7434187 C66.8361071,18.3697937 67.1062857,17.9287937 67.2945,17.4204187 C67.4827143,16.913575 67.5768214,16.3516062 67.5768214,15.7391062 C67.5768214,15.1388562 67.4827143,14.5814812 67.2945,14.0669812 C67.1062857,13.5524812 66.8361071,13.1084187 66.4839643,12.7347937 C66.1318214,12.3611687 65.7098571,12.0702312 65.2180714,11.8619812 C64.7262857,11.6537312 64.1768214,11.5496062 63.5696786,11.5496062 C62.9625357,11.5496062 62.4130714,11.6537312 61.9212857,11.8619812 C61.4295,12.0702312 61.0075357,12.3611687 60.6553929,12.7347937 C60.30325,13.1084187 60.0330714,13.5524812 59.8448571,14.0669812 C59.6566429,14.5814812 59.5625357,15.1388562 59.5625357,15.7391062 M56.6118214,15.7391062 C56.6118214,14.6978562 56.7848571,13.7546062 57.1309286,12.9093562 C57.477,12.0641062 57.9596786,11.3444187 58.5789643,10.7502937 C59.19825,10.1561687 59.9328929,9.7013875 60.7828929,9.38135625 C61.6328929,9.06285625 62.5618214,8.90360625 63.5696786,8.90360625 C64.5775357,8.90360625 65.5064643,9.06285625 66.3564643,9.38135625 C67.2064643,9.7013875 67.9411071,10.1561687 68.5603929,10.7502937 C69.1796786,11.3444187 69.6623571,12.0641062 70.0084286,12.9093562 C70.3545,13.7546062 70.5275357,14.6978562 70.5275357,15.7391062 C70.5275357,16.7803562 70.3545,17.7236062 70.0084286,18.5688562 C69.6623571,19.4141062 69.1796786,20.1337937 68.5603929,20.7279187 C67.9411071,21.3220437 67.2064643,21.7783562 66.3564643,22.0968562 C65.5064643,22.4153562 64.5775357,22.5746062 63.5696786,22.5746062 C62.5618214,22.5746062 61.6328929,22.4153562 60.7828929,22.0968562 C59.9328929,21.7783562 59.19825,21.3220437 58.5789643,20.7279187 C57.9596786,20.1337937 57.477,19.4141062 57.1309286,18.5688562 C56.7848571,17.7236062 56.6118214,16.7803562 56.6118214,15.7391062" id="Fill-30" fill="#2E2F33" sketch:type="MSShapeGroup"></path>
                        <path d="M74.8804464,17.7787312 C74.8804464,18.4524812 75.0716964,18.9976062 75.4541964,19.4141062 C75.8366964,19.8306062 76.3740179,20.0388562 77.0661607,20.0388562 C77.7583036,20.0388562 78.295625,19.8306062 78.678125,19.4141062 C79.060625,18.9976062 79.251875,18.4524812 79.251875,17.7787312 C79.251875,17.1065125 79.060625,16.5598562 78.678125,16.1433562 C78.295625,15.7268562 77.7583036,15.5186062 77.0661607,15.5186062 C76.3740179,15.5186062 75.8366964,15.7268562 75.4541964,16.1433562 C75.0716964,16.5598562 74.8804464,17.1065125 74.8804464,17.7787312 L74.8804464,17.7787312 Z M72.366875,13.3136062 L74.8804464,13.3136062 L74.8804464,14.4896062 L74.916875,14.4896062 C75.0261607,14.3303562 75.1688393,14.1680437 75.3449107,14.0026687 C75.5209821,13.8372937 75.7274107,13.6872312 75.9641964,13.5524812 C76.2009821,13.4177312 76.4590179,13.3074812 76.7383036,13.2217312 C77.0175893,13.1359812 77.3150893,13.0931062 77.6308036,13.0931062 C78.2865179,13.0931062 78.8815179,13.2064187 79.4158036,13.4330437 C79.9500893,13.6612 80.4084821,13.9797 80.7909821,14.3885437 C81.1734821,14.7989187 81.4679464,15.2858562 81.674375,15.8493562 C81.8808036,16.4128562 81.9840179,17.0314812 81.9840179,17.7052312 C81.9840179,18.3299812 81.8899107,18.9271687 81.7016964,19.4967937 C81.5134821,20.0664187 81.2463393,20.5717312 80.9002679,21.0127312 C80.5541964,21.4537312 80.1322321,21.8059187 79.634375,22.0692937 C79.1365179,22.3326687 78.571875,22.4643562 77.9404464,22.4643562 C77.3697321,22.4643562 76.8384821,22.3755437 76.3466964,22.1979187 C75.8549107,22.021825 75.4511607,21.7171062 75.1354464,21.2883562 L75.0990179,21.2883562 L75.0990179,26.4333562 L72.366875,26.4333562 L72.366875,13.3136062 Z" id="Fill-32" fill="#2E2F33" sketch:type="MSShapeGroup"></path>
                        <path d="M89.6522321,16.7679531 C89.664375,16.3024531 89.5125893,15.9058594 89.196875,15.5735781 C88.8811607,15.2428281 88.474375,15.0774531 87.9765179,15.0774531 C87.6729464,15.0774531 87.4058036,15.1279844 87.1750893,15.2244531 C86.944375,15.3239844 86.7470536,15.4495469 86.583125,15.6011406 C86.4191964,15.7542656 86.2916964,15.9318906 86.200625,16.1340156 C86.1095536,16.3361406 86.0579464,16.5474531 86.0458036,16.7679531 L89.6522321,16.7679531 Z M91.9654464,20.7002031 C91.5283036,21.2652344 90.9758036,21.7001094 90.3079464,22.0048281 C89.6400893,22.3110781 88.9479464,22.4642031 88.2315179,22.4642031 C87.5515179,22.4642031 86.9109821,22.3539531 86.3099107,22.1334531 C85.7088393,21.9129531 85.1866964,21.5975156 84.7434821,21.1871406 C84.3002679,20.7767656 83.9511607,20.2837031 83.6961607,19.7079531 C83.4411607,19.1322031 83.3136607,18.4890781 83.3136607,17.7785781 C83.3136607,17.0680781 83.4411607,16.4249531 83.6961607,15.8492031 C83.9511607,15.2734531 84.3002679,14.7803906 84.7434821,14.3715469 C85.1866964,13.9596406 85.7088393,13.6442031 86.3099107,13.4237031 C86.9109821,13.2032031 87.5515179,13.0944844 88.2315179,13.0944844 C88.8629464,13.0944844 89.4366964,13.2032031 89.9527679,13.4237031 C90.4688393,13.6442031 90.9059821,13.9596406 91.2641964,14.3715469 C91.6224107,14.7803906 91.8986607,15.2734531 92.0929464,15.8492031 C92.2872321,16.4249531 92.384375,17.0680781 92.384375,17.7785781 L92.384375,18.6437344 L86.0458036,18.6437344 C86.1550893,19.1689531 86.391875,19.5885156 86.7561607,19.9008906 C87.1204464,20.2132656 87.5697321,20.3709844 88.1040179,20.3709844 C88.5533036,20.3709844 88.9327679,20.2683906 89.2424107,20.0662656 C89.5520536,19.8641406 89.8222321,19.6053594 90.0529464,19.2868594 L91.9654464,20.7002031 Z" id="Fill-34" fill="#2E2F33" sketch:type="MSShapeGroup"></path>
                        <path d="M94.0420268,13.3136062 L96.6648839,13.3136062 L96.6648839,14.5263562 L96.7013125,14.5263562 C96.7863125,14.3548562 96.9077411,14.1833562 97.0655982,14.0118562 C97.2234554,13.8403562 97.4116696,13.6872312 97.6302411,13.5524812 C97.8488125,13.4177312 98.0977411,13.3074812 98.3770268,13.2217312 C98.6563125,13.1359812 98.9598839,13.0931062 99.2877411,13.0931062 C99.9798839,13.0931062 100.538455,13.2002937 100.963455,13.4146687 C101.388455,13.6290437 101.719348,13.9261062 101.956134,14.3058562 C102.19292,14.6856062 102.353813,15.1327312 102.438813,15.6472312 C102.522295,16.1617312 102.566313,16.7206375 102.566313,17.3193562 L102.566313,22.2438563 L99.8341696,22.2438563 L99.8341696,17.8706062 C99.8341696,17.6133562 99.8250625,17.3469187 99.8068482,17.0712937 C99.7886339,16.7956687 99.7339911,16.5414812 99.6429196,16.3087312 C99.5518482,16.0759812 99.4122054,15.8861062 99.2239911,15.7391062 C99.0357768,15.5921062 98.7655982,15.5186062 98.4134554,15.5186062 C98.0597946,15.5186062 97.7759554,15.5829187 97.5573839,15.7115437 C97.3388125,15.8401687 97.1718482,16.0116687 97.0564911,16.2260437 C96.9411339,16.4404187 96.8652411,16.6823562 96.8288125,16.9518562 C96.7923839,17.2213562 96.7741696,17.5031062 96.7741696,17.7971062 L96.7741696,22.2438563 L94.0420268,22.2438563 L94.0420268,13.3136062 Z" id="Fill-36" fill="#2E2F33" sketch:type="MSShapeGroup"></path>
                        <path d="M110.342598,9.23435625 L113.184027,9.23435625 L113.184027,19.5993875 L118.447955,19.5993875 L118.447955,22.2438563 L110.342598,22.2438563 L110.342598,9.23435625 Z" id="Fill-38" fill="#2E2F33" sketch:type="MSShapeGroup"></path>
                        <path d="M125.733973,16.7679531 C125.746116,16.3024531 125.59433,15.9058594 125.278616,15.5735781 C124.962902,15.2428281 124.556116,15.0774531 124.058259,15.0774531 C123.754688,15.0774531 123.487545,15.1279844 123.25683,15.2244531 C123.026116,15.3239844 122.828795,15.4495469 122.664866,15.6011406 C122.500938,15.7542656 122.373438,15.9318906 122.282366,16.1340156 C122.191295,16.3361406 122.139688,16.5474531 122.127545,16.7679531 L125.733973,16.7679531 Z M128.047188,20.7002031 C127.610045,21.2652344 127.057545,21.7001094 126.389688,22.0048281 C125.72183,22.3110781 125.029688,22.4642031 124.313259,22.4642031 C123.633259,22.4642031 122.992723,22.3539531 122.391652,22.1334531 C121.79058,21.9129531 121.268437,21.5975156 120.825223,21.1871406 C120.382009,20.7767656 120.032902,20.2837031 119.777902,19.7079531 C119.522902,19.1322031 119.395402,18.4890781 119.395402,17.7785781 C119.395402,17.0680781 119.522902,16.4249531 119.777902,15.8492031 C120.032902,15.2734531 120.382009,14.7803906 120.825223,14.3715469 C121.268437,13.9596406 121.79058,13.6442031 122.391652,13.4237031 C122.992723,13.2032031 123.633259,13.0944844 124.313259,13.0944844 C124.944688,13.0944844 125.518438,13.2032031 126.034509,13.4237031 C126.55058,13.6442031 126.987723,13.9596406 127.345937,14.3715469 C127.704152,14.7803906 127.980402,15.2734531 128.174688,15.8492031 C128.368973,16.4249531 128.466116,17.0680781 128.466116,17.7785781 L128.466116,18.6437344 L122.127545,18.6437344 C122.23683,19.1689531 122.473616,19.5885156 122.837902,19.9008906 C123.202187,20.2132656 123.651473,20.3709844 124.185759,20.3709844 C124.635045,20.3709844 125.014509,20.2683906 125.324152,20.0662656 C125.633795,19.8641406 125.903973,19.6053594 126.134687,19.2868594 L128.047188,20.7002031 Z" id="Fill-40" fill="#2E2F33" sketch:type="MSShapeGroup"></path>
                        <path d="M136.899179,17.7787312 C136.899179,17.1065125 136.707929,16.5598562 136.325429,16.1433562 C135.942929,15.7268562 135.405607,15.5186062 134.713464,15.5186062 C134.021321,15.5186062 133.484,15.7268562 133.1015,16.1433562 C132.719,16.5598562 132.52775,17.1065125 132.52775,17.7787312 C132.52775,18.4524812 132.719,18.9976062 133.1015,19.4141062 C133.484,19.8306062 134.021321,20.0388562 134.713464,20.0388562 C135.405607,20.0388562 135.942929,19.8306062 136.325429,19.4141062 C136.707929,18.9976062 136.899179,18.4524812 136.899179,17.7787312 L136.899179,17.7787312 Z M139.41275,22.2438563 L136.899179,22.2438563 L136.899179,21.0678562 L136.86275,21.0678562 C136.753464,21.2271062 136.610786,21.3894187 136.434714,21.5547938 C136.258643,21.7201687 136.052214,21.8702312 135.815429,22.0049813 C135.578643,22.1397312 135.317571,22.2499813 135.032214,22.3357312 C134.746857,22.4214812 134.452393,22.4643562 134.148821,22.4643562 C133.493107,22.4643562 132.898107,22.3510437 132.363821,22.1244188 C131.829536,21.8977937 131.371143,21.5792937 130.988643,21.1689187 C130.606143,20.7585438 130.311679,20.2716062 130.10525,19.7081063 C129.898821,19.1461375 129.795607,18.5259812 129.795607,17.8522312 C129.795607,17.2274812 129.889714,16.6302937 130.077929,16.0606687 C130.266143,15.4910437 130.533286,14.9857312 130.879357,14.5447312 C131.225429,14.1037312 131.647393,13.7515437 132.14525,13.4881687 C132.643107,13.2247937 133.20775,13.0931062 133.839179,13.0931062 C134.409893,13.0931062 134.941143,13.1819187 135.432929,13.3595438 C135.924714,13.5371687 136.328464,13.8403562 136.644179,14.2691062 L136.680607,14.2691062 L136.680607,8.35235625 L139.41275,8.35235625 L139.41275,22.2438563 Z" id="Fill-42" fill="#2E2F33" sketch:type="MSShapeGroup"></path>
                        <path d="M144.002295,17.7234531 C144.002295,18.0174531 144.056938,18.2961406 144.166223,18.5595156 C144.275509,18.8244219 144.43033,19.0556406 144.630687,19.2577656 C144.831045,19.4598906 145.061759,19.6222031 145.32283,19.7447031 C145.583902,19.8672031 145.870777,19.9284531 146.188009,19.9284531 C146.49158,19.9284531 146.776938,19.8672031 147.04408,19.7447031 C147.311223,19.6222031 147.544973,19.4598906 147.74533,19.2577656 C147.945687,19.0556406 148.100509,18.8244219 148.209795,18.5595156 C148.31908,18.2961406 148.373723,18.0174531 148.373723,17.7234531 C148.373723,17.4309844 148.31908,17.1507656 148.209795,16.8873906 C148.100509,16.6240156 147.945687,16.3912656 147.74533,16.1891406 C147.544973,15.9870156 147.311223,15.8247031 147.04408,15.7022031 C146.776938,15.5812344 146.49158,15.5199844 146.188009,15.5199844 C145.870777,15.5199844 145.583902,15.5812344 145.32283,15.7022031 C145.061759,15.8247031 144.831045,15.9870156 144.630687,16.1891406 C144.43033,16.3912656 144.275509,16.6240156 144.166223,16.8873906 C144.056938,17.1507656 144.002295,17.4309844 144.002295,17.7234531 L144.002295,17.7234531 Z M150.887295,21.4903281 C150.887295,23.1808281 150.46533,24.4640156 149.621402,25.3414219 C148.777473,26.2157656 147.493366,26.6537031 145.76908,26.6537031 C144.979795,26.6537031 144.202652,26.5648906 143.437652,26.3872656 C142.672652,26.2096406 141.968366,25.8635781 141.324795,25.3490781 L142.83658,23.0705781 C143.26158,23.4258281 143.70783,23.7075781 144.17533,23.9158281 C144.64283,24.1240781 145.155866,24.2282031 145.714438,24.2282031 C146.552295,24.2282031 147.168545,24.0230156 147.563187,23.6126406 C147.956312,23.2022656 148.155152,22.6785781 148.155152,22.0415781 L148.155152,21.1779531 L148.118723,21.1779531 C147.801491,21.6067031 147.411402,21.9098906 146.943902,22.0890469 C146.476402,22.2651406 146.036223,22.3539531 145.623366,22.3539531 C144.967652,22.3539531 144.372652,22.2406406 143.838366,22.0140156 C143.30408,21.7873906 142.845687,21.4688906 142.463188,21.0585156 C142.080687,20.6481406 141.786223,20.1612031 141.579795,19.5992344 C141.373366,19.0342031 141.270152,18.4155781 141.270152,17.7418281 C141.270152,17.1538281 141.364259,16.5780781 141.552473,16.0145781 C141.740688,15.4526094 142.00783,14.9549531 142.353902,14.5262031 C142.699973,14.0974531 143.12042,13.7513906 143.619795,13.4880156 C144.117652,13.2246406 144.682295,13.0944844 145.313723,13.0944844 C145.702295,13.0944844 146.057473,13.1358281 146.379259,13.2231094 C146.701045,13.3073281 146.989438,13.4175781 147.244438,13.5523281 C147.499437,13.6870781 147.718009,13.8371406 147.900152,14.0025156 C148.082295,14.1678906 148.228009,14.3302031 148.337295,14.4894531 L148.373723,14.4894531 L148.373723,13.3134531 L150.887295,13.3134531 L150.887295,21.4903281 Z" id="Fill-44" fill="#2E2F33" sketch:type="MSShapeGroup"></path>
                        <path d="M159.137911,16.7679531 C159.150054,16.3024531 158.998268,15.9058594 158.682554,15.5735781 C158.366839,15.2428281 157.960054,15.0774531 157.462196,15.0774531 C157.158625,15.0774531 156.891482,15.1279844 156.660768,15.2244531 C156.430054,15.3239844 156.232732,15.4495469 156.068804,15.6011406 C155.904875,15.7542656 155.777375,15.9318906 155.686304,16.1340156 C155.595232,16.3361406 155.543625,16.5474531 155.531482,16.7679531 L159.137911,16.7679531 Z M161.451125,20.7002031 C161.013982,21.2652344 160.461482,21.7001094 159.793625,22.0048281 C159.125768,22.3110781 158.433625,22.4642031 157.717196,22.4642031 C157.037196,22.4642031 156.396661,22.3539531 155.795589,22.1334531 C155.194518,21.9129531 154.672375,21.5975156 154.229161,21.1871406 C153.785946,20.7767656 153.436839,20.2837031 153.181839,19.7079531 C152.926839,19.1322031 152.799339,18.4890781 152.799339,17.7785781 C152.799339,17.0680781 152.926839,16.4249531 153.181839,15.8492031 C153.436839,15.2734531 153.785946,14.7803906 154.229161,14.3715469 C154.672375,13.9596406 155.194518,13.6442031 155.795589,13.4237031 C156.396661,13.2032031 157.037196,13.0944844 157.717196,13.0944844 C158.348625,13.0944844 158.922375,13.2032031 159.438446,13.4237031 C159.954518,13.6442031 160.391661,13.9596406 160.749875,14.3715469 C161.108089,14.7803906 161.384339,15.2734531 161.578625,15.8492031 C161.772911,16.4249531 161.870054,17.0680781 161.870054,17.7785781 L161.870054,18.6437344 L155.531482,18.6437344 C155.640768,19.1689531 155.877554,19.5885156 156.241839,19.9008906 C156.606125,20.2132656 157.055411,20.3709844 157.589696,20.3709844 C158.038982,20.3709844 158.418446,20.2683906 158.728089,20.0662656 C159.037732,19.8641406 159.307911,19.6053594 159.538625,19.2868594 L161.451125,20.7002031 Z" id="Fill-46" fill="#2E2F33" sketch:type="MSShapeGroup"></path>
                        <g id="Group-50">
                            <mask id="mask-2" sketch:name="Clip 49" fill="white">
                                <use xlink:href="#path-1"></use>
                            </mask>
                            <g id="Clip-49"></g>
                            <path d="M163.528464,13.3136062 L166.260607,13.3136062 L166.260607,14.7468562 L166.297036,14.7468562 C166.588464,14.1956062 166.934536,13.7821687 167.33525,13.5065437 C167.735964,13.2309187 168.239893,13.0931062 168.845518,13.0931062 C169.004893,13.0931062 169.161232,13.0992312 169.320607,13.1114812 C169.476946,13.1237312 169.624179,13.1482312 169.75775,13.1849812 L169.75775,15.7023562 C169.563464,15.6426375 169.372214,15.5951687 169.184,15.5645437 C168.995786,15.5339187 168.798464,15.5186062 168.592036,15.5186062 C168.069893,15.5186062 167.657036,15.5921062 167.353464,15.7391062 C167.049893,15.8861062 166.816143,16.0912937 166.652214,16.3546687 C166.488286,16.6180437 166.382036,16.9334812 166.333464,17.3009812 C166.284893,17.6684812 166.260607,18.0727312 166.260607,18.5137312 L166.260607,22.2438563 L163.528464,22.2438563 L163.528464,13.3136062 Z" id="Fill-48" fill="#2E2F33" sketch:type="MSShapeGroup" mask="url(#mask-2)"></path>
                        </g>
                        <path d="M57.5955446,27.6093562 L65.5916161,27.6093562 L65.5916161,29.0441375 L59.1255446,29.0441375 L59.1255446,33.3423562 L65.1362589,33.3423562 L65.1362589,34.7756062 L59.1255446,34.7756062 L59.1255446,40.6188563 L57.5955446,40.6188563 L57.5955446,27.6093562 Z" id="Fill-51" fill="#2E2F33" sketch:type="MSShapeGroup"></path>
                        <path d="M68.5051429,36.3197187 C68.5051429,36.7729688 68.5749643,37.191 68.7146071,37.576875 C68.85425,37.96275 69.0576429,38.3011562 69.3247857,38.5875 C69.5919286,38.8769062 69.9106786,39.102 70.2810357,39.2689063 C70.6513929,39.43275 71.0672857,39.5169688 71.5287143,39.5169688 C71.9901429,39.5169688 72.4060357,39.43275 72.7763929,39.2689063 C73.14675,39.102 73.4655,38.8769062 73.7326429,38.5875 C73.9997857,38.3011562 74.2031786,37.96275 74.3428214,37.576875 C74.4824643,37.191 74.5522857,36.7729688 74.5522857,36.3197187 C74.5522857,35.8664688 74.4824643,35.4469062 74.3428214,35.0610312 C74.2031786,34.6751563 73.9997857,34.3382813 73.7326429,34.0504063 C73.4655,33.7625313 73.14675,33.5359062 72.7763929,33.369 C72.4060357,33.2051562 71.9901429,33.1209375 71.5287143,33.1209375 C71.0672857,33.1209375 70.6513929,33.2051562 70.2810357,33.369 C69.9106786,33.5359062 69.5919286,33.7625313 69.3247857,34.0504063 C69.0576429,34.3382813 68.85425,34.6751563 68.7146071,35.0610312 C68.5749643,35.4469062 68.5051429,35.8664688 68.5051429,36.3197187 M66.9751429,36.3197187 C66.9751429,35.6459688 67.0905,35.0319375 67.3212143,34.4822188 C67.5519286,33.9294375 67.8676429,33.4562813 68.2683571,33.056625 C68.6690714,32.6585 69.1487143,32.3491875 69.7072857,32.1302187 C70.2658571,31.9081875 70.873,31.7994687 71.5287143,31.7994687 C72.1844286,31.7994687 72.7915714,31.9081875 73.3501429,32.1302187 C73.9087143,32.3491875 74.3883571,32.6585 74.7890714,33.056625 C75.1897857,33.4562813 75.5055,33.9294375 75.7362143,34.4822188 C75.9669286,35.0319375 76.0822857,35.6459688 76.0822857,36.3197187 C76.0822857,36.9919375 75.9669286,37.6059688 75.7362143,38.1556875 C75.5055,38.7084688 75.1897857,39.1831563 74.7890714,39.5812813 C74.3883571,39.9794063 73.9087143,40.2887188 73.3501429,40.5076875 C72.7915714,40.7297188 72.1844286,40.8384375 71.5287143,40.8384375 C70.873,40.8384375 70.2658571,40.7297188 69.7072857,40.5076875 C69.1487143,40.2887188 68.6690714,39.9794063 68.2683571,39.5812813 C67.8676429,39.1831563 67.5519286,38.7084688 67.3212143,38.1556875 C67.0905,37.6059688 66.9751429,36.9919375 66.9751429,36.3197187" id="Fill-53" fill="#2E2F33" sketch:type="MSShapeGroup"></path>
                        <path d="M85.71825,38.5792312 C85.71825,38.9712313 85.7303929,39.3387313 85.7546786,39.6817312 C85.7789643,40.0247313 85.7911071,40.3371063 85.7911071,40.6188563 L84.44325,40.6188563 C84.44325,40.3861062 84.4371786,40.1533563 84.4250357,39.9206063 C84.4128929,39.6893875 84.4068214,39.4489813 84.4068214,39.2039813 L84.3703929,39.2039813 C84.27325,39.4122313 84.1366429,39.6143563 83.9605714,39.8103563 C83.7845,40.0063563 83.5750357,40.1809188 83.3321786,40.3340437 C83.0893214,40.4871688 82.8161071,40.6096688 82.5125357,40.7015437 C82.2089643,40.7934188 81.8811071,40.8393563 81.5289643,40.8393563 C80.9703929,40.8393563 80.4877143,40.7536063 80.0809286,40.5821063 C79.6741429,40.4106063 79.3371786,40.1717313 79.0700357,39.8654813 C78.8028929,39.5607625 78.6055714,39.1886687 78.4780714,38.7537937 C78.3505714,38.3189188 78.2868214,37.8457625 78.2868214,37.3297313 L78.2868214,32.0193563 L79.7075357,32.0193563 L79.7075357,37.1827313 C79.7075357,37.9070125 79.8653929,38.4766375 80.1811071,38.8916063 C80.4968214,39.3096375 80.9886071,39.5163563 81.6564643,39.5163563 C82.1178929,39.5163563 82.5155714,39.4382625 82.8495,39.2774813 C83.1834286,39.1197625 83.4566429,38.8916063 83.6691429,38.5976062 C83.8816429,38.3036063 84.0395,37.9544813 84.1427143,37.5502313 C84.2459286,37.1459813 84.2975357,36.6988563 84.2975357,36.2088563 L84.2975357,32.0193563 L85.71825,32.0193563 L85.71825,38.5792312 Z" id="Fill-55" fill="#2E2F33" sketch:type="MSShapeGroup"></path>
                        <path d="M88.4138125,34.0588281 C88.4138125,33.6668281 88.4016696,33.2993281 88.3773839,32.9563281 C88.3515804,32.6148594 88.3409554,32.3024844 88.3409554,32.0192031 L89.6888125,32.0192031 C89.6888125,32.2519531 89.6948839,32.4862344 89.7070268,32.7174531 C89.7191696,32.9502031 89.7252411,33.1906094 89.7252411,33.4340781 L89.7616696,33.4340781 C89.8588125,33.2258281 89.9954196,33.0237031 90.1714911,32.8277031 C90.3475625,32.6317031 90.5570268,32.4571406 90.7998839,32.3040156 C91.0427411,32.1508906 91.3159554,32.0283906 91.6195268,31.9365156 C91.9230982,31.8446406 92.2509554,31.7987031 92.6030982,31.7987031 C93.1616696,31.7987031 93.6443482,31.8844531 94.0511339,32.0559531 C94.4579196,32.2289844 94.7948839,32.4663281 95.0620268,32.7725781 C95.3291696,33.0788281 95.5264911,33.4509219 95.6539911,33.8842656 C95.7814911,34.3191406 95.8452411,34.7938281 95.8452411,35.3083281 L95.8452411,40.6187031 L94.4245268,40.6187031 L94.4245268,35.4553281 C94.4245268,34.7325781 94.2666696,34.1629531 93.9509554,33.7464531 C93.6337232,33.3299531 93.1434554,33.1217031 92.4755982,33.1217031 C92.0141696,33.1217031 91.6164911,33.2013281 91.2825625,33.3605781 C90.9486339,33.5198281 90.6754196,33.7464531 90.4629196,34.0404531 C90.2504196,34.3359844 90.0910446,34.6835781 89.9893482,35.0878281 C89.8861339,35.4936094 89.8345268,35.9407344 89.8345268,36.4292031 L89.8345268,40.6187031 L88.4138125,40.6187031 L88.4138125,34.0588281 Z" id="Fill-57" fill="#2E2F33" sketch:type="MSShapeGroup"></path>
                        <path d="M105.626768,36.3197187 C105.626768,35.8664688 105.556946,35.4469062 105.417304,35.0610312 C105.277661,34.6751563 105.074268,34.3382813 104.807125,34.0504063 C104.539982,33.7625313 104.221232,33.5359062 103.850875,33.369 C103.480518,33.2051563 103.064625,33.1209375 102.603196,33.1209375 C102.141768,33.1209375 101.725875,33.2051563 101.355518,33.369 C100.985161,33.5359062 100.666411,33.7625313 100.399268,34.0504063 C100.132125,34.3382813 99.9287321,34.6751563 99.7890893,35.0610312 C99.6494464,35.4469062 99.579625,35.8664688 99.579625,36.3197187 C99.579625,36.7729688 99.6494464,37.191 99.7890893,37.576875 C99.9287321,37.96275 100.132125,38.3011563 100.399268,38.5875 C100.666411,38.8769063 100.985161,39.102 101.355518,39.2689063 C101.725875,39.43275 102.141768,39.5169688 102.603196,39.5169688 C103.064625,39.5169688 103.480518,39.43275 103.850875,39.2689063 C104.221232,39.102 104.539982,38.8769063 104.807125,38.5875 C105.074268,38.3011563 105.277661,37.96275 105.417304,37.576875 C105.556946,37.191 105.626768,36.7729688 105.626768,36.3197187 L105.626768,36.3197187 Z M105.626768,39.0943438 L105.590339,39.0943438 C105.323196,39.5843438 104.899714,39.99625 104.324446,40.3346563 C103.747661,40.6715313 103.076768,40.8384375 102.311768,40.8384375 C101.716768,40.8384375 101.158196,40.7266562 100.636054,40.4985 C100.113911,40.2734063 99.6615893,39.9579687 99.2790893,39.5521875 C98.8965893,39.1494687 98.5960536,38.6701875 98.3774821,38.1204688 C98.1589107,37.5676875 98.049625,36.9689688 98.049625,36.3197187 C98.049625,35.6689375 98.1589107,35.0702187 98.3774821,34.5174375 C98.5960536,33.9677188 98.899625,33.4884375 99.2881964,33.0857187 C99.6767679,32.6814688 100.147304,32.3660312 100.699804,32.1394063 C101.252304,31.9127813 101.862482,31.7994688 102.530339,31.7994688 C103.149625,31.7994688 103.717304,31.9280937 104.233375,32.1853438 C104.749446,32.4425938 105.201768,32.8039687 105.590339,33.2694688 L105.626768,33.2694688 L105.626768,26.7264375 L107.047482,26.7264375 L107.047482,40.6194688 L105.626768,40.6194688 L105.626768,39.0943438 Z" id="Fill-59" fill="#2E2F33" sketch:type="MSShapeGroup"></path>
                        <path d="M113.676268,36.4843281 C112.765554,36.4843281 112.043054,36.6129531 111.508768,36.8702031 C110.974482,37.1274531 110.707339,37.5500781 110.707339,38.1380781 C110.707339,38.6786094 110.886446,39.0614219 111.244661,39.2865156 C111.602875,39.5146719 112.049125,39.6264531 112.583411,39.6264531 C112.996268,39.6264531 113.357518,39.5560156 113.667161,39.4151406 C113.976804,39.2742656 114.234839,39.0874531 114.441268,38.8547031 C114.647696,38.6219531 114.805554,38.3493906 114.914839,38.0385469 C115.024125,37.7261719 115.084839,37.3923594 115.096982,37.0355781 L115.096982,36.4843281 L113.676268,36.4843281 Z M109.559839,33.1217031 C109.996982,32.6699844 110.516089,32.3346406 111.117161,32.1202656 C111.718232,31.9074219 112.328411,31.7987031 112.947696,31.7987031 C114.210554,31.7987031 115.121268,32.1003594 115.679839,32.6990781 C116.238411,33.2993281 116.517696,34.2134844 116.517696,35.4369531 L116.517696,39.1318594 C116.517696,39.3768594 116.529839,39.6310469 116.554125,39.8944219 C116.578411,40.1562656 116.608768,40.3997344 116.645196,40.6187031 L115.279125,40.6187031 C115.230554,40.4227031 115.203232,40.2067969 115.197161,39.9663906 C115.191089,39.7275156 115.188054,39.5162031 115.188054,39.3324531 L115.151625,39.3324531 C114.872339,39.7734531 114.498946,40.1348281 114.031446,40.4165781 C113.563946,40.6983281 113.002339,40.8392031 112.346625,40.8392031 C111.909482,40.8392031 111.499661,40.7856094 111.117161,40.6738281 C110.734661,40.5635781 110.400732,40.4027969 110.115375,40.1868906 C109.830018,39.9725156 109.602339,39.7060781 109.432339,39.3875781 C109.262339,39.0690781 109.177339,38.7015781 109.177339,38.2850781 C109.177339,37.5745781 109.359482,37.0187344 109.723768,36.6129531 C110.088054,36.2087031 110.540375,35.9085781 111.080732,35.7125781 C111.621089,35.5165781 112.203946,35.3940781 112.829304,35.3450781 C113.454661,35.2976094 114.028411,35.2715781 114.550554,35.2715781 L115.096982,35.2715781 L115.096982,35.0143281 C115.096982,34.3895781 114.911804,33.9179531 114.541446,33.5994531 C114.171089,33.2809531 113.651982,33.1217031 112.984125,33.1217031 C112.522696,33.1217031 112.070375,33.1982656 111.627161,33.3513906 C111.183946,33.5060469 110.792339,33.7403281 110.452339,34.0588281 L109.559839,33.1217031 Z" id="Fill-61" fill="#2E2F33" sketch:type="MSShapeGroup"></path>
                        <path d="M123.7855,33.2318 L121.271929,33.2318 L121.271929,37.5330813 C121.271929,37.8133 121.278,38.0736125 121.290143,38.3124875 C121.302286,38.5528938 121.350857,38.7596125 121.435857,38.9387688 C121.520857,39.1148625 121.648357,39.2572688 121.818357,39.3598625 C121.988357,39.4639875 122.231214,39.51605 122.546929,39.51605 C122.753357,39.51605 122.965857,39.49155 123.184429,39.4440813 C123.403,39.39355 123.609429,39.3215813 123.803714,39.22205 L123.858357,40.5282063 C123.6155,40.636925 123.345321,40.71655 123.047821,40.76555 C122.750321,40.81455 122.468,40.83905 122.200857,40.83905 C121.690857,40.83905 121.284071,40.771675 120.9805,40.636925 C120.676929,40.502175 120.440143,40.3123 120.270143,40.0673 C120.100143,39.8238312 119.987821,39.5191125 119.933179,39.1577375 C119.878536,38.7978938 119.851214,38.395175 119.851214,37.954175 L119.851214,33.2318 L117.993357,33.2318 L117.993357,32.01905 L119.851214,32.01905 L119.851214,29.575175 L121.271929,29.575175 L121.271929,32.01905 L123.7855,32.01905 L123.7855,33.2318 Z" id="Fill-63" fill="#2E2F33" sketch:type="MSShapeGroup"></path>
                        <mask id="mask-4" sketch:name="Clip 66" fill="white">
                            <use xlink:href="#path-3"></use>
                        </mask>
                        <g id="Clip-66"></g>
                        <path d="M125.680089,32.0184375 L127.100804,32.0184375 L127.100804,40.6179375 L125.680089,40.6179375 L125.680089,32.0184375 Z M125.352232,28.6573437 C125.352232,28.3755937 125.450893,28.1290625 125.652768,27.9223437 C125.853125,27.7140937 126.099018,27.6099687 126.390446,27.6099687 C126.680357,27.6099687 126.927768,27.7140937 127.126607,27.9223437 C127.328482,28.1290625 127.428661,28.3755937 127.428661,28.6573437 C127.428661,28.9620625 127.331518,29.2131875 127.137232,29.4091875 C126.941429,29.6051875 126.6925,29.7047187 126.390446,29.7047187 C126.085357,29.7047187 125.836429,29.6051875 125.643661,29.4091875 C125.447857,29.2131875 125.352232,28.9620625 125.352232,28.6573437 L125.352232,28.6573437 Z" id="Fill-65" fill="#2E2F33" sketch:type="MSShapeGroup" mask="url(#mask-4)"></path>
                        <path d="M130.96117,36.3197187 C130.96117,36.7729688 131.030991,37.191 131.170634,37.576875 C131.310277,37.96275 131.51367,38.3011562 131.780813,38.5875 C132.047955,38.8769062 132.366705,39.102 132.737063,39.2689063 C133.10742,39.43275 133.523313,39.5169688 133.984741,39.5169688 C134.44617,39.5169688 134.862063,39.43275 135.23242,39.2689063 C135.602777,39.102 135.921527,38.8769062 136.18867,38.5875 C136.455813,38.3011562 136.659205,37.96275 136.798848,37.576875 C136.938491,37.191 137.008313,36.7729688 137.008313,36.3197187 C137.008313,35.8664688 136.938491,35.4469062 136.798848,35.0610312 C136.659205,34.6751563 136.455813,34.3382813 136.18867,34.0504063 C135.921527,33.7625313 135.602777,33.5359062 135.23242,33.369 C134.862063,33.2051562 134.44617,33.1209375 133.984741,33.1209375 C133.523313,33.1209375 133.10742,33.2051562 132.737063,33.369 C132.366705,33.5359062 132.047955,33.7625313 131.780813,34.0504063 C131.51367,34.3382813 131.310277,34.6751563 131.170634,35.0610312 C131.030991,35.4469062 130.96117,35.8664688 130.96117,36.3197187 M129.43117,36.3197187 C129.43117,35.6459688 129.546527,35.0319375 129.777241,34.4822188 C130.007955,33.9294375 130.32367,33.4562813 130.724384,33.056625 C131.125098,32.6585 131.604741,32.3491875 132.163313,32.1302187 C132.721884,31.9081875 133.329027,31.7994687 133.984741,31.7994687 C134.640455,31.7994687 135.247598,31.9081875 135.80617,32.1302187 C136.364741,32.3491875 136.844384,32.6585 137.245098,33.056625 C137.645813,33.4562813 137.961527,33.9294375 138.192241,34.4822188 C138.422955,35.0319375 138.538313,35.6459688 138.538313,36.3197187 C138.538313,36.9919375 138.422955,37.6059688 138.192241,38.1556875 C137.961527,38.7084688 137.645813,39.1831563 137.245098,39.5812813 C136.844384,39.9794063 136.364741,40.2887188 135.80617,40.5076875 C135.247598,40.7297188 134.640455,40.8384375 133.984741,40.8384375 C133.329027,40.8384375 132.721884,40.7297188 132.163313,40.5076875 C131.604741,40.2887188 131.125098,39.9794063 130.724384,39.5812813 C130.32367,39.1831563 130.007955,38.7084688 129.777241,38.1556875 C129.546527,37.6059688 129.43117,36.9919375 129.43117,36.3197187" id="Fill-67" fill="#2E2F33" sketch:type="MSShapeGroup" mask="url(#mask-4)"></path>
                        <path d="M140.742696,34.0588281 C140.742696,33.6668281 140.730554,33.2993281 140.706268,32.9563281 C140.680464,32.6148594 140.669839,32.3024844 140.669839,32.0192031 L142.017696,32.0192031 C142.017696,32.2519531 142.023768,32.4862344 142.035911,32.7174531 C142.048054,32.9502031 142.054125,33.1906094 142.054125,33.4340781 L142.090554,33.4340781 C142.187696,33.2258281 142.324304,33.0237031 142.500375,32.8277031 C142.676446,32.6317031 142.885911,32.4571406 143.128768,32.3040156 C143.371625,32.1508906 143.644839,32.0283906 143.948411,31.9365156 C144.251982,31.8446406 144.579839,31.7987031 144.931982,31.7987031 C145.490554,31.7987031 145.973232,31.8844531 146.380018,32.0559531 C146.786804,32.2289844 147.123768,32.4663281 147.390911,32.7725781 C147.658054,33.0788281 147.855375,33.4509219 147.982875,33.8842656 C148.110375,34.3191406 148.174125,34.7938281 148.174125,35.3083281 L148.174125,40.6187031 L146.753411,40.6187031 L146.753411,35.4553281 C146.753411,34.7325781 146.595554,34.1629531 146.279839,33.7464531 C145.962607,33.3299531 145.472339,33.1217031 144.804482,33.1217031 C144.343054,33.1217031 143.945375,33.2013281 143.611446,33.3605781 C143.277518,33.5198281 143.004304,33.7464531 142.791804,34.0404531 C142.579304,34.3359844 142.419929,34.6835781 142.318232,35.0878281 C142.215018,35.4936094 142.163411,35.9407344 142.163411,36.4292031 L142.163411,40.6187031 L140.742696,40.6187031 L140.742696,34.0588281 Z" id="Fill-68" fill="#2E2F33" sketch:type="MSShapeGroup" mask="url(#mask-4)"></path>
                    </g>
                </g>
            </g>
        </g>
    </g>
</svg>