<?xml version="1.0" encoding="utf-8"?>
<!-- Generator: Adobe Illustrator 19.2.0, SVG Export Plug-In . SVG Version: 6.00 Build 0)  -->
<!DOCTYPE svg PUBLIC "-//W3C//DTD SVG 1.1//EN" "http://www.w3.org/Graphics/SVG/1.1/DTD/svg11.dtd">
<svg version="1.1" id="Layer_1" xmlns="http://www.w3.org/2000/svg" xmlns:xlink="http://www.w3.org/1999/xlink" x="0px" y="0px"
	 viewBox="0 0 200 40" style="enable-background:new 0 0 200 40;" xml:space="preserve">
<style type="text/css">
	.st0{fill:none;stroke:#2F3134;stroke-width:0.5;stroke-miterlimit:10;}
	.st1{fill:#2F3134;}
</style>
<polygon class="st0" points="15.5,5.8 18.6,4 21.7,5.8 21.7,9.3 18.6,11.1 15.5,9.3 "/>
<polygon class="st0" points="11.4,7.4 13.8,4.7 17.2,5.5 18.3,8.9 16,11.5 12.5,10.8 "/>
<polygon class="st0" points="8,10.2 9.4,7 13,6.6 15,9.5 13.6,12.7 10.1,13.1 "/>
<polygon class="st0" points="5.6,13.9 6,10.4 9.2,9 12.1,11 11.7,14.6 8.5,16 "/>
<polygon class="st0" points="4.5,18.2 3.8,14.7 6.4,12.4 9.8,13.5 10.5,16.9 7.9,19.3 "/>
<polygon class="st0" points="4.8,22.6 3,19.6 4.8,16.5 8.3,16.5 10.1,19.6 8.3,22.6 "/>
<polygon class="st0" points="6.4,26.8 3.7,24.4 4.5,20.9 7.8,19.8 10.5,22.2 9.7,25.7 "/>
<polygon class="st0" points="9.2,30.2 5.9,28.7 5.6,25.2 8.4,23.1 11.7,24.6 12,28.1 "/>
<polygon class="st0" points="12.9,32.6 9.4,32.2 7.9,29 10,26.1 13.5,26.5 15,29.7 "/>
<polygon class="st0" points="17.2,33.7 13.7,34.4 11.3,31.8 12.4,28.4 15.9,27.7 18.2,30.3 "/>
<polygon class="st0" points="21.6,33.4 18.5,35.2 15.4,33.4 15.4,29.9 18.5,28.1 21.6,29.9 "/>
<polygon class="st0" points="25.7,31.8 23.3,34.5 19.8,33.7 18.8,30.4 21.1,27.7 24.6,28.5 "/>
<polygon class="st0" points="29.1,29 27.6,32.3 24.1,32.6 22.1,29.8 23.5,26.5 27,26.2 "/>
<polygon class="st0" points="31.5,25.3 31.1,28.8 27.9,30.3 25,28.2 25.4,24.7 28.6,23.2 "/>
<polygon class="st0" points="32.6,21 33.3,24.5 30.7,26.9 27.3,25.8 26.6,22.3 29.2,19.9 "/>
<polygon class="st0" points="32.3,16.6 34.1,19.7 32.3,22.7 28.8,22.7 27,19.7 28.8,16.6 "/>
<polygon class="st0" points="30.7,12.5 33.4,14.8 32.6,18.3 29.3,19.4 26.6,17 27.4,13.6 "/>
<polygon class="st0" points="27.9,9 31.2,10.5 31.5,14 28.7,16.1 25.4,14.6 25.1,11.1 "/>
<polygon class="st0" points="24.2,6.6 27.7,7 29.2,10.3 27.1,13.1 23.6,12.8 22.1,9.5 "/>
<polygon class="st0" points="19.9,5.5 23.4,4.8 25.8,7.4 24.7,10.8 21.2,11.5 18.9,8.9 "/>
<g>
	<path class="st1" d="M40,19.5c0-0.7,0.1-1.4,0.4-2c0.2-0.6,0.6-1.1,1-1.5c0.4-0.4,1-0.7,1.6-1c0.6-0.2,1.3-0.3,2-0.3
		c0.7,0,1.4,0.1,2,0.3c0.6,0.2,1.1,0.5,1.6,1c0.4,0.4,0.8,0.9,1,1.5c0.2,0.6,0.4,1.3,0.4,2c0,0.7-0.1,1.4-0.4,2
		c-0.2,0.6-0.6,1.1-1,1.5c-0.4,0.4-1,0.7-1.6,1c-0.6,0.2-1.3,0.3-2,0.3c-0.7,0-1.4-0.1-2-0.3c-0.6-0.2-1.1-0.5-1.6-1
		c-0.4-0.4-0.8-0.9-1-1.5C40.1,20.9,40,20.2,40,19.5z M42.1,19.5c0,0.4,0.1,0.8,0.2,1.2c0.1,0.4,0.3,0.7,0.6,0.9
		c0.3,0.3,0.6,0.5,0.9,0.6c0.4,0.1,0.7,0.2,1.2,0.2c0.4,0,0.8-0.1,1.2-0.2c0.4-0.1,0.7-0.4,0.9-0.6s0.4-0.6,0.6-0.9
		c0.1-0.4,0.2-0.8,0.2-1.2c0-0.4-0.1-0.8-0.2-1.2s-0.3-0.7-0.6-0.9s-0.6-0.5-0.9-0.6s-0.7-0.2-1.2-0.2c-0.4,0-0.8,0.1-1.2,0.2
		s-0.7,0.4-0.9,0.6c-0.3,0.3-0.4,0.6-0.6,0.9S42.1,19.1,42.1,19.5z"/>
	<path class="st1" d="M51.1,14.9h3.4c0.5,0,0.9,0,1.4,0.1c0.4,0.1,0.8,0.2,1.1,0.4c0.3,0.2,0.6,0.5,0.8,0.9c0.2,0.4,0.3,0.8,0.3,1.4
		c0,0.5-0.1,1-0.3,1.4c-0.2,0.4-0.4,0.7-0.7,0.9c-0.3,0.2-0.7,0.4-1.1,0.5s-0.9,0.1-1.4,0.1h-1.5v3.6h-2V14.9z M53.1,18.8h1.4
		c0.2,0,0.4,0,0.5-0.1c0.2,0,0.3-0.1,0.5-0.2s0.2-0.2,0.3-0.3c0.1-0.1,0.1-0.3,0.1-0.5c0-0.2-0.1-0.4-0.2-0.6
		c-0.1-0.1-0.2-0.3-0.4-0.3s-0.4-0.1-0.6-0.1s-0.4,0-0.6,0h-1V18.8z"/>
	<path class="st1" d="M59.1,14.9h6.3v1.9h-4.2v1.7h4v1.9h-4v1.9h4.5v1.9h-6.5V14.9z"/>
	<path class="st1" d="M66.9,14.9h2.8l3.9,6.4h0v-6.4h2v9.2H73l-4-6.6h0v6.6h-2V14.9z"/>
	<path class="st1" d="M80.9,14.9h2v7.3h3.8v1.9h-5.8V14.9z"/>
	<path class="st1" d="M87.6,14.9h6.3v1.9h-4.2v1.7h4v1.9h-4v1.9h4.5v1.9h-6.5V14.9z"/>
	<path class="st1" d="M95.5,14.9h3c0.7,0,1.4,0.1,2.1,0.2c0.7,0.2,1.2,0.4,1.7,0.8s0.9,0.8,1.2,1.4c0.3,0.6,0.4,1.3,0.4,2.1
		c0,0.7-0.1,1.4-0.4,2c-0.3,0.6-0.7,1-1.1,1.4s-1,0.7-1.7,0.9s-1.3,0.3-2,0.3h-3.3V14.9z M97.5,22.2h1.1c0.5,0,0.9,0,1.3-0.1
		c0.4-0.1,0.8-0.3,1-0.5c0.3-0.2,0.5-0.5,0.7-0.9s0.3-0.8,0.3-1.3c0-0.5-0.1-0.8-0.3-1.2s-0.4-0.6-0.7-0.8c-0.3-0.2-0.6-0.4-1-0.5
		c-0.4-0.1-0.8-0.2-1.2-0.2h-1.2V22.2z"/>
	<path class="st1" d="M113.4,23.4c-0.6,0.3-1.2,0.5-1.9,0.7c-0.6,0.1-1.3,0.2-2,0.2c-0.7,0-1.4-0.1-2-0.3c-0.6-0.2-1.1-0.5-1.6-1
		c-0.4-0.4-0.8-0.9-1-1.5c-0.2-0.6-0.4-1.3-0.4-2c0-0.7,0.1-1.4,0.4-2c0.2-0.6,0.6-1.1,1-1.5c0.4-0.4,1-0.7,1.6-1
		c0.6-0.2,1.3-0.3,2-0.3c0.7,0,1.4,0.1,2,0.3c0.6,0.2,1.2,0.5,1.6,0.9l-1.4,1.6c-0.3-0.3-0.6-0.5-0.9-0.6s-0.8-0.2-1.3-0.2
		c-0.4,0-0.8,0.1-1.2,0.2c-0.4,0.1-0.7,0.4-0.9,0.6c-0.3,0.3-0.4,0.6-0.6,0.9c-0.1,0.4-0.2,0.8-0.2,1.2c0,0.4,0.1,0.8,0.2,1.2
		c0.1,0.4,0.3,0.7,0.6,0.9c0.3,0.3,0.6,0.5,0.9,0.6c0.4,0.1,0.7,0.2,1.2,0.2c0.4,0,0.8,0,1.1-0.1s0.6-0.2,0.8-0.3v-1.5h-1.7v-1.9
		h3.6V23.4z"/>
	<path class="st1" d="M115,14.9h6.3v1.9h-4.2v1.7h4v1.9h-4v1.9h4.5v1.9H115V14.9z"/>
	<path class="st1" d="M122.9,14.9h3.6c0.5,0,0.9,0,1.3,0.1c0.4,0.1,0.8,0.2,1.1,0.5c0.3,0.2,0.6,0.5,0.8,0.9
		c0.2,0.4,0.3,0.8,0.3,1.3c0,0.7-0.2,1.2-0.5,1.7c-0.3,0.5-0.8,0.7-1.5,0.9l2.3,3.9h-2.4l-1.9-3.7h-1v3.7h-2V14.9z M124.9,18.7h1.2
		c0.2,0,0.4,0,0.6,0c0.2,0,0.4-0.1,0.6-0.1c0.2-0.1,0.3-0.2,0.4-0.3s0.2-0.3,0.2-0.6c0-0.2,0-0.4-0.1-0.6c-0.1-0.1-0.2-0.2-0.4-0.3
		c-0.1-0.1-0.3-0.1-0.5-0.1c-0.2,0-0.4,0-0.6,0h-1.3V18.7z"/>
	<path class="st1" d="M134.6,14.9h3.4c0.5,0,0.9,0,1.4,0.1c0.4,0.1,0.8,0.2,1.1,0.4c0.3,0.2,0.6,0.5,0.8,0.9s0.3,0.8,0.3,1.4
		c0,0.5-0.1,1-0.3,1.4c-0.2,0.4-0.4,0.7-0.7,0.9c-0.3,0.2-0.7,0.4-1.1,0.5s-0.9,0.1-1.4,0.1h-1.5v3.6h-2V14.9z M136.7,18.8h1.4
		c0.2,0,0.4,0,0.5-0.1c0.2,0,0.3-0.1,0.5-0.2c0.1-0.1,0.2-0.2,0.3-0.3c0.1-0.1,0.1-0.3,0.1-0.5c0-0.2-0.1-0.4-0.2-0.6
		c-0.1-0.1-0.2-0.3-0.4-0.3c-0.2-0.1-0.4-0.1-0.6-0.1s-0.4,0-0.6,0h-1V18.8z"/>
	<path class="st1" d="M142.6,14.9h3.6c0.5,0,0.9,0,1.3,0.1c0.4,0.1,0.8,0.2,1.1,0.5c0.3,0.2,0.6,0.5,0.8,0.9
		c0.2,0.4,0.3,0.8,0.3,1.3c0,0.7-0.2,1.2-0.5,1.7c-0.3,0.5-0.8,0.7-1.5,0.9l2.3,3.9h-2.4l-1.9-3.7h-1v3.7h-2V14.9z M144.6,18.7h1.2
		c0.2,0,0.4,0,0.6,0c0.2,0,0.4-0.1,0.6-0.1c0.2-0.1,0.3-0.2,0.4-0.3s0.2-0.3,0.2-0.6c0-0.2,0-0.4-0.1-0.6c-0.1-0.1-0.2-0.2-0.4-0.3
		c-0.1-0.1-0.3-0.1-0.5-0.1c-0.2,0-0.4,0-0.6,0h-1.3V18.7z"/>
	<path class="st1" d="M150.2,19.5c0-0.7,0.1-1.4,0.4-2c0.2-0.6,0.6-1.1,1-1.5c0.4-0.4,1-0.7,1.6-1c0.6-0.2,1.3-0.3,2-0.3
		c0.7,0,1.4,0.1,2,0.3c0.6,0.2,1.1,0.5,1.6,1c0.4,0.4,0.8,0.9,1,1.5c0.2,0.6,0.4,1.3,0.4,2c0,0.7-0.1,1.4-0.4,2
		c-0.2,0.6-0.6,1.1-1,1.5c-0.4,0.4-1,0.7-1.6,1c-0.6,0.2-1.3,0.3-2,0.3c-0.7,0-1.4-0.1-2-0.3c-0.6-0.2-1.1-0.5-1.6-1
		c-0.4-0.4-0.8-0.9-1-1.5C150.4,20.9,150.2,20.2,150.2,19.5z M152.3,19.5c0,0.4,0.1,0.8,0.2,1.2c0.1,0.4,0.3,0.7,0.6,0.9
		c0.3,0.3,0.6,0.5,0.9,0.6c0.4,0.1,0.7,0.2,1.2,0.2c0.4,0,0.8-0.1,1.2-0.2c0.4-0.1,0.7-0.4,0.9-0.6c0.3-0.3,0.4-0.6,0.6-0.9
		c0.1-0.4,0.2-0.8,0.2-1.2c0-0.4-0.1-0.8-0.2-1.2s-0.3-0.7-0.6-0.9c-0.3-0.3-0.6-0.5-0.9-0.6c-0.4-0.1-0.7-0.2-1.2-0.2
		c-0.4,0-0.8,0.1-1.2,0.2s-0.7,0.4-0.9,0.6c-0.3,0.3-0.4,0.6-0.6,0.9C152.4,18.7,152.3,19.1,152.3,19.5z"/>
	<path class="st1" d="M166,21c0,0.4,0,0.8-0.1,1.2c-0.1,0.4-0.2,0.8-0.4,1.1s-0.5,0.6-0.9,0.7c-0.4,0.2-0.9,0.3-1.5,0.3
		c-0.7,0-1.3-0.2-1.8-0.5c-0.5-0.3-0.8-0.9-1-1.6l1.9-0.5c0,0.2,0.1,0.4,0.3,0.6s0.4,0.2,0.6,0.2c0.2,0,0.4-0.1,0.5-0.2
		s0.2-0.3,0.3-0.4s0.1-0.4,0.1-0.6c0-0.2,0-0.4,0-0.6v-5.9h2V21z"/>
	<path class="st1" d="M167.6,14.9h6.3v1.9h-4.2v1.7h4v1.9h-4v1.9h4.5v1.9h-6.5V14.9z"/>
	<path class="st1" d="M181.5,17.3c-0.2-0.2-0.4-0.4-0.7-0.6c-0.3-0.1-0.6-0.2-1-0.2s-0.7,0.1-1.1,0.2s-0.6,0.4-0.8,0.6
		s-0.4,0.6-0.6,0.9c-0.1,0.4-0.2,0.8-0.2,1.2c0,0.4,0.1,0.8,0.2,1.2c0.1,0.4,0.3,0.7,0.6,0.9c0.2,0.3,0.5,0.5,0.8,0.6
		c0.3,0.1,0.7,0.2,1,0.2c0.4,0,0.8-0.1,1.1-0.3c0.3-0.2,0.6-0.4,0.8-0.7l1.7,1.3c-0.4,0.5-0.9,0.9-1.5,1.2s-1.2,0.4-1.8,0.4
		c-0.7,0-1.4-0.1-2-0.3c-0.6-0.2-1.1-0.5-1.6-1c-0.4-0.4-0.8-0.9-1-1.5c-0.2-0.6-0.4-1.3-0.4-2c0-0.7,0.1-1.4,0.4-2
		c0.2-0.6,0.6-1.1,1-1.5c0.4-0.4,1-0.7,1.6-1c0.6-0.2,1.3-0.3,2-0.3c0.3,0,0.5,0,0.8,0.1c0.3,0,0.6,0.1,0.8,0.2
		c0.3,0.1,0.5,0.2,0.8,0.4c0.3,0.2,0.5,0.4,0.7,0.6L181.5,17.3z"/>
	<path class="st1" d="M185.9,16.7h-2.6v-1.8h7.3v1.8h-2.6v7.4h-2V16.7z"/>
</g>
</svg>
