<svg id="Layer_1" data-name="Layer 1" xmlns="http://www.w3.org/2000/svg" viewBox="0 0 180 52"><defs><style>.cls-1,.cls-6{fill:#2f3034;}.cls-2,.cls-3,.cls-4,.cls-5{fill:none;}.cls-3,.cls-4,.cls-5{stroke:#2f3034;stroke-miterlimit:10;}.cls-3,.cls-4{stroke-width:0.2px;}.cls-4{stroke-dasharray:2.04 2.04;}.cls-5{stroke-width:0.37px;}.cls-6{font-size:30px;font-family:League Spartan;font-weight:700;}</style></defs><title>OBC-logo-3</title><path class="cls-1" d="M62.84,12.24h2.41v4.08h4.68V12.24h2.41V23.18H69.93V18.45H65.25v4.73H62.84V12.24Z"/><path class="cls-1" d="M77.11,18.52L73,12.24h3l2.32,4.09,2.46-4.09h2.86l-4.11,6.27v4.67H77.11V18.52Z"/><path class="cls-1" d="M84.28,12.24h4.07A8.07,8.07,0,0,1,90,12.4a3.68,3.68,0,0,1,1.32.53,2.69,2.69,0,0,1,.9,1,3.49,3.49,0,0,1,.33,1.61,3.72,3.72,0,0,1-.31,1.61,2.64,2.64,0,0,1-.85,1,3.45,3.45,0,0,1-1.28.55,7.51,7.51,0,0,1-1.61.16H86.69v4.26H84.28V12.24Zm2.41,4.63H88.3a3.13,3.13,0,0,0,.63-0.06,1.68,1.68,0,0,0,.54-0.21,1.12,1.12,0,0,0,.39-0.4A1.27,1.27,0,0,0,90,15.57a1.08,1.08,0,0,0-.19-0.67,1.29,1.29,0,0,0-.5-0.39,2.13,2.13,0,0,0-.67-0.18,6.72,6.72,0,0,0-.71,0H86.69v2.59Z"/><path class="cls-1" d="M94,12.24h7.44v2.22h-5v2h4.75v2.22H96.37V21h5.3v2.22H94V12.24Z"/><path class="cls-1" d="M103.45,12.24h4.24a7.47,7.47,0,0,1,1.58.16,3.78,3.78,0,0,1,1.31.54,2.69,2.69,0,0,1,.9,1,3.45,3.45,0,0,1,.33,1.6,3.21,3.21,0,0,1-.6,2,2.72,2.72,0,0,1-1.76,1l2.78,4.62h-2.89L107,18.81h-1.19v4.37h-2.41V12.24Zm2.41,4.53h1.42l0.69,0a2.17,2.17,0,0,0,.66-0.14,1.14,1.14,0,0,0,.49-0.36,1.1,1.1,0,0,0,.19-0.7,1.15,1.15,0,0,0-.17-0.66,1.14,1.14,0,0,0-.43-0.38,2,2,0,0,0-.6-0.18,5,5,0,0,0-.66,0h-1.58v2.49Z"/><path class="cls-1" d="M113.4,12.24h2.41V21h4.47v2.22H113.4V12.24Z"/><path class="cls-1" d="M121.55,12.24H129v2.22h-5v2h4.75v2.22H124V21h5.3v2.22h-7.71V12.24Z"/><path class="cls-1" d="M131,12.24h3.62a10.3,10.3,0,0,1,2.5.29,5.71,5.71,0,0,1,2.06.95,4.67,4.67,0,0,1,1.4,1.71,5.71,5.71,0,0,1,.52,2.55,5.2,5.2,0,0,1-.5,2.34,5,5,0,0,1-1.35,1.7,6,6,0,0,1-2,1,7.62,7.62,0,0,1-2.33.36H131V12.24ZM133.45,21h1.25a6.75,6.75,0,0,0,1.55-.17,3.31,3.31,0,0,0,1.24-.56,2.69,2.69,0,0,0,.83-1,3.66,3.66,0,0,0,.3-1.57,3.05,3.05,0,0,0-.3-1.4,2.77,2.77,0,0,0-.81-1,3.55,3.55,0,0,0-1.2-.58,5.33,5.33,0,0,0-1.45-.19h-1.42V21Z"/><path class="cls-1" d="M152.52,22.41a8.73,8.73,0,0,1-2.23.8,11.36,11.36,0,0,1-2.37.25,6.73,6.73,0,0,1-2.37-.4,5.4,5.4,0,0,1-1.87-1.15,5.22,5.22,0,0,1-1.23-1.82,6.64,6.64,0,0,1,0-4.76,5.23,5.23,0,0,1,1.23-1.82,5.41,5.41,0,0,1,1.87-1.15,6.75,6.75,0,0,1,2.37-.4,8.76,8.76,0,0,1,2.42.32,4.74,4.74,0,0,1,1.94,1.09l-1.7,1.85a3.39,3.39,0,0,0-1.11-.77,4,4,0,0,0-1.55-.26,3.58,3.58,0,0,0-1.4.26,3.14,3.14,0,0,0-1.08.73,3.22,3.22,0,0,0-.69,1.12,4.27,4.27,0,0,0,0,2.82,3.23,3.23,0,0,0,.69,1.11,3.13,3.13,0,0,0,1.08.73,3.57,3.57,0,0,0,1.4.26,4.62,4.62,0,0,0,1.36-.18,5.09,5.09,0,0,0,.91-0.36V18.92h-2V16.69h4.28v5.71Z"/><path class="cls-1" d="M154.58,12.24H162v2.22h-5v2h4.75v2.22H157V21h5.3v2.22h-7.71V12.24Z"/><path class="cls-1" d="M164.07,12.24h4.24a7.47,7.47,0,0,1,1.58.16,3.78,3.78,0,0,1,1.31.54,2.69,2.69,0,0,1,.9,1,3.45,3.45,0,0,1,.33,1.6,3.21,3.21,0,0,1-.6,2,2.72,2.72,0,0,1-1.76,1l2.78,4.62H170l-2.29-4.37h-1.19v4.37h-2.41V12.24Zm2.41,4.53h1.42l0.69,0a2.17,2.17,0,0,0,.66-0.14,1.14,1.14,0,0,0,.49-0.36,1.1,1.1,0,0,0,.19-0.7,1.15,1.15,0,0,0-.17-0.66,1.14,1.14,0,0,0-.43-0.38,2,2,0,0,0-.6-0.18,5,5,0,0,0-.66,0h-1.58v2.49Z"/><path class="cls-1" d="M63,26.67h3a6.46,6.46,0,0,1,1.35.14,3.34,3.34,0,0,1,1.14.46,2.38,2.38,0,0,1,.8.87,2.76,2.76,0,0,1,.3,1.34,2.73,2.73,0,0,1-.32,1.39,2.48,2.48,0,0,1-.82.87,3.36,3.36,0,0,1-1.09.45,5.26,5.26,0,0,1-1.13.13H64.21v4.6H63V26.67Zm1.22,4.51h2.05a2.48,2.48,0,0,0,1.48-.41,1.72,1.72,0,0,0,0-2.56,2.48,2.48,0,0,0-1.48-.41H64.21v3.38Z"/><path class="cls-1" d="M71.43,26.67H74a12.49,12.49,0,0,1,1.47.09,3.93,3.93,0,0,1,1.31.38,2.37,2.37,0,0,1,.94.84,2.75,2.75,0,0,1,.36,1.51,2.49,2.49,0,0,1-.68,1.82,3.25,3.25,0,0,1-1.88.88l2.91,4.71H77l-2.78-4.6H72.65v4.6H71.43V26.67Zm1.22,4.51h1.08l1,0a3.55,3.55,0,0,0,1-.19,1.74,1.74,0,0,0,.75-0.5,1.44,1.44,0,0,0,.3-1,1.59,1.59,0,0,0-.22-0.88A1.46,1.46,0,0,0,76,28.09a2.43,2.43,0,0,0-.8-0.24,6.75,6.75,0,0,0-.89-0.06H72.65v3.38Z"/><path class="cls-1" d="M84.88,37.16a5.56,5.56,0,0,1-2.15-.4A5.16,5.16,0,0,1,81,35.64a5,5,0,0,1-1.11-1.71,6,6,0,0,1,0-4.29A5,5,0,0,1,81,27.94a5.16,5.16,0,0,1,1.69-1.12,5.91,5.91,0,0,1,4.3,0,5.16,5.16,0,0,1,1.69,1.12,5,5,0,0,1,1.11,1.71,6,6,0,0,1,0,4.29,5,5,0,0,1-1.11,1.71A5.16,5.16,0,0,1,87,36.76,5.56,5.56,0,0,1,84.88,37.16Zm0-1.13a4,4,0,0,0,1.64-.33,3.88,3.88,0,0,0,1.28-.91,4.15,4.15,0,0,0,.83-1.35,4.76,4.76,0,0,0,0-3.31,4.16,4.16,0,0,0-.83-1.35,3.9,3.9,0,0,0-1.28-.91,4.23,4.23,0,0,0-3.28,0,3.88,3.88,0,0,0-1.28.91,4.14,4.14,0,0,0-.83,1.35,4.76,4.76,0,0,0,0,3.31A4.13,4.13,0,0,0,82,34.79a3.87,3.87,0,0,0,1.28.91A4,4,0,0,0,84.88,36Z"/><path class="cls-1" d="M96.47,34.26a3.61,3.61,0,0,1-.15,1,2.66,2.66,0,0,1-.49.93,2.48,2.48,0,0,1-.9.68,3.25,3.25,0,0,1-1.38.26,2.9,2.9,0,0,1-1.81-.55A2.56,2.56,0,0,1,90.81,35L92,34.72a1.69,1.69,0,0,0,.5,1,1.46,1.46,0,0,0,1,.35,1.73,1.73,0,0,0,.85-0.19,1.36,1.36,0,0,0,.51-0.49,2.08,2.08,0,0,0,.25-0.7,4.57,4.57,0,0,0,.07-0.82V26.67h1.21v7.59Z"/><path class="cls-1" d="M98.87,26.67h6.44V27.8h-5.22V31H105v1.13h-4.87v3.64h5.48V36.9h-6.7V26.67Z"/><path class="cls-1" d="M114.48,28.78a2.94,2.94,0,0,0-1.14-.93,3.37,3.37,0,0,0-1.42-.31,3.55,3.55,0,0,0-1.57.35,3.93,3.93,0,0,0-1.24.93,4.28,4.28,0,0,0-.81,1.36,4.57,4.57,0,0,0-.29,1.61,4.74,4.74,0,0,0,.29,1.67,4.16,4.16,0,0,0,.8,1.34,3.76,3.76,0,0,0,1.23.9,4,4,0,0,0,3.26,0,3.82,3.82,0,0,0,1.29-1.06l0.91,0.77a4.21,4.21,0,0,1-1.67,1.36,5.38,5.38,0,0,1-2.21.43,5.21,5.21,0,0,1-2.05-.4,5.06,5.06,0,0,1-1.66-1.12,5.17,5.17,0,0,1-1.1-1.7,6,6,0,0,1,0-4.26,5.09,5.09,0,0,1,4.82-3.27,5.47,5.47,0,0,1,2,.38A3.69,3.69,0,0,1,115.53,28Z"/><path class="cls-1" d="M124.21,27.8h-3.38V36.9h-1.21V27.8h-3.38V26.67h8V27.8Z"/><rect class="cls-2" x="3" y="2" width="48" height="48"/><ellipse class="cls-3" cx="27.62" cy="24.41" rx="19.62" ry="5.73"/><ellipse class="cls-4" cx="27.63" cy="24.41" rx="5.73" ry="19.63" transform="translate(-4.76 42.02) rotate(-70)"/><ellipse class="cls-5" cx="27.62" cy="24.41" rx="19.62" ry="5.73" transform="translate(-6.68 10.92) rotate(-20)"/><ellipse class="cls-3" cx="27.62" cy="24.41" rx="19.62" ry="5.73" transform="translate(-6.68 10.92) rotate(-20)"/><text class="cls-6" transform="translate(16 37)">H</text><circle class="cls-1" cx="28" cy="5.5" r="1.5"/><circle class="cls-3" cx="45.25" cy="9.25" r="2.25"/><circle class="cls-3" cx="10.75" cy="39.25" r="2.25"/><circle class="cls-1" cx="11.04" cy="9.25" r="0.75"/><circle class="cls-1" cx="44.5" cy="38.5" r="1.5"/><circle class="cls-1" cx="27.25" cy="43.75" r="0.75"/></svg>