<svg id="Layer_1" data-name="Layer 1" xmlns="http://www.w3.org/2000/svg" viewBox="0 0 176.76 48"><defs><style>.cls-1{fill:none;stroke:#2f3034;stroke-miterlimit:10;stroke-width:0.5px;}.cls-2{fill:#2f3034;}</style></defs><title>OBC-logo-3</title><polygon class="cls-1" points="19.35 2.98 24 0.29 28.65 2.98 28.65 8.37 24 11.07 19.35 8.37 19.35 2.98"/><polygon class="cls-1" points="13.1 5.43 16.69 1.43 21.95 2.55 23.61 7.67 20.01 11.68 14.76 10.56 13.1 5.43"/><polygon class="cls-1" points="7.91 9.7 10.09 4.77 15.43 4.21 18.59 8.57 16.41 13.49 11.06 14.06 7.91 9.7"/><polygon class="cls-1" points="4.29 15.36 4.85 10 9.75 7.81 14.1 10.98 13.54 16.34 8.63 18.53 4.29 15.36"/><polygon class="cls-1" points="2.58 21.87 1.47 16.6 5.46 12.99 10.57 14.66 11.69 19.93 7.69 23.54 2.58 21.87"/><polygon class="cls-1" points="2.97 28.59 0.29 23.93 2.97 19.26 8.35 19.26 11.03 23.93 8.35 28.59 2.97 28.59"/><polygon class="cls-1" points="5.41 34.86 1.42 31.25 2.54 25.98 7.65 24.32 11.64 27.93 10.52 33.2 5.41 34.86"/><polygon class="cls-1" points="9.66 40.07 4.76 37.88 4.2 32.52 8.54 29.35 13.45 31.54 14.01 36.9 9.66 40.07"/><polygon class="cls-1" points="15.31 43.7 9.97 43.14 7.79 38.22 10.94 33.86 16.29 34.42 18.47 39.34 15.31 43.7"/><polygon class="cls-1" points="21.8 45.41 16.55 46.53 12.95 42.52 14.61 37.4 19.87 36.28 23.46 40.28 21.8 45.41"/><polygon class="cls-1" points="28.5 45.02 23.85 47.71 19.2 45.02 19.2 39.63 23.85 36.93 28.5 39.63 28.5 45.02"/><polygon class="cls-1" points="34.75 42.57 31.16 46.57 25.9 45.45 24.24 40.33 27.84 36.32 33.09 37.44 34.75 42.57"/><polygon class="cls-1" points="39.94 38.3 37.75 43.23 32.41 43.79 29.25 39.43 31.44 34.51 36.78 33.94 39.94 38.3"/><polygon class="cls-1" points="43.56 32.64 43 38 38.09 40.19 33.75 37.02 34.31 31.66 39.22 29.47 43.56 32.64"/><polygon class="cls-1" points="45.26 26.13 46.38 31.4 42.39 35.01 37.28 33.34 36.16 28.07 40.15 24.46 45.26 26.13"/><polygon class="cls-1" points="44.87 19.41 47.56 24.07 44.87 28.74 39.5 28.74 36.81 24.07 39.5 19.41 44.87 19.41"/><polygon class="cls-1" points="42.43 13.14 46.42 16.74 45.31 22.02 40.2 23.68 36.21 20.07 37.32 14.8 42.43 13.14"/><polygon class="cls-1" points="38.18 7.93 43.09 10.12 43.65 15.48 39.3 18.65 34.4 16.46 33.84 11.1 38.18 7.93"/><polygon class="cls-1" points="32.53 4.3 37.88 4.86 40.06 9.79 36.9 14.14 31.56 13.58 29.38 8.66 32.53 4.3"/><polygon class="cls-1" points="26.04 2.59 31.3 1.47 34.89 5.48 33.23 10.6 27.98 11.72 24.38 7.72 26.04 2.59"/><path class="cls-2" d="M56.51,11.62h2.64v4.46h5.12V11.62H66.9v12H64.27V18.41H59.15v5.17H56.51v-12Z"/><path class="cls-2" d="M72.11,18.47l-4.49-6.85h3.28l2.54,4.47,2.69-4.47h3.13l-4.49,6.85v5.1H72.11v-5.1Z"/><path class="cls-2" d="M79.94,11.62h4.44a8.8,8.8,0,0,1,1.76.17,4,4,0,0,1,1.45.58,3,3,0,0,1,1,1.11,3.82,3.82,0,0,1,.36,1.76A4.06,4.06,0,0,1,88.6,17a2.88,2.88,0,0,1-.93,1.13,3.76,3.76,0,0,1-1.4.6,8.22,8.22,0,0,1-1.76.18H82.58v4.66H79.94v-12Zm2.64,5.06h1.76A3.41,3.41,0,0,0,85,16.62a1.83,1.83,0,0,0,.59-0.23A1.23,1.23,0,0,0,86,15.95a1.39,1.39,0,0,0,.16-0.7A1.19,1.19,0,0,0,86,14.51a1.41,1.41,0,0,0-.54-0.43,2.31,2.31,0,0,0-.73-0.19,7.48,7.48,0,0,0-.78,0H82.58v2.84Z"/><path class="cls-2" d="M90.52,11.62h8.13V14H93.16v2.23h5.19v2.43H93.16v2.43H99v2.43H90.52v-12Z"/><path class="cls-2" d="M100.9,11.62h4.63a8.18,8.18,0,0,1,1.73.18,4.12,4.12,0,0,1,1.44.59,3,3,0,0,1,1,1.11,3.77,3.77,0,0,1,.36,1.75,3.51,3.51,0,0,1-.66,2.15,3,3,0,0,1-1.93,1.12l3,5h-3.16l-2.5-4.78h-1.3v4.78H100.9v-12Zm2.64,4.95h1.55l0.75,0a2.37,2.37,0,0,0,.72-0.15,1.25,1.25,0,0,0,.53-0.4,1.21,1.21,0,0,0,.21-0.76,1.27,1.27,0,0,0-.19-0.73,1.24,1.24,0,0,0-.47-0.41A2.08,2.08,0,0,0,106,13.9a5.3,5.3,0,0,0-.73-0.05h-1.72v2.72Z"/><path class="cls-2" d="M111.78,11.62h2.64v9.52h4.88v2.43h-7.52v-12Z"/><path class="cls-2" d="M120.68,11.62h8.13V14h-5.49v2.23h5.19v2.43h-5.19v2.43h5.79v2.43h-8.43v-12Z"/><path class="cls-2" d="M131.05,11.62h4a11.29,11.29,0,0,1,2.73.32A6.25,6.25,0,0,1,140,13a5.09,5.09,0,0,1,1.53,1.87,6.26,6.26,0,0,1,.57,2.79,5.68,5.68,0,0,1-.55,2.56A5.48,5.48,0,0,1,140.06,22a6.52,6.52,0,0,1-2.15,1.14,8.31,8.31,0,0,1-2.55.39h-4.31v-12Zm2.64,9.52h1.37a7.36,7.36,0,0,0,1.7-.19,3.63,3.63,0,0,0,1.36-.62,3,3,0,0,0,.9-1.13,4,4,0,0,0,.33-1.71A3.33,3.33,0,0,0,139,16a3,3,0,0,0-.89-1.07,3.91,3.91,0,0,0-1.31-.63,5.82,5.82,0,0,0-1.58-.21h-1.55v7.09Z"/><path class="cls-2" d="M154.54,22.73a9.6,9.6,0,0,1-2.43.88,12.4,12.4,0,0,1-2.59.27,7.39,7.39,0,0,1-2.58-.44,5.92,5.92,0,0,1-2-1.26,5.71,5.71,0,0,1-1.34-2,6.76,6.76,0,0,1-.48-2.6,6.76,6.76,0,0,1,.48-2.6,5.71,5.71,0,0,1,1.34-2,5.92,5.92,0,0,1,2-1.26,7.37,7.37,0,0,1,2.58-.44,9.59,9.59,0,0,1,2.64.35,5.17,5.17,0,0,1,2.12,1.19l-1.86,2a3.71,3.71,0,0,0-1.22-.84,4.34,4.34,0,0,0-1.69-.29A3.91,3.91,0,0,0,148,14a3.44,3.44,0,0,0-1.17.8,3.53,3.53,0,0,0-.75,1.22,4.66,4.66,0,0,0,0,3.08,3.54,3.54,0,0,0,.75,1.22,3.44,3.44,0,0,0,1.17.8,3.91,3.91,0,0,0,1.53.29,5.06,5.06,0,0,0,1.49-.19,5.68,5.68,0,0,0,1-.4V18.91h-2.15V16.48h4.68v6.25Z"/><path class="cls-2" d="M156.79,11.62h8.13V14h-5.49v2.23h5.19v2.43h-5.19v2.43h5.79v2.43h-8.43v-12Z"/><path class="cls-2" d="M167.16,11.62h4.63a8.18,8.18,0,0,1,1.73.18,4.12,4.12,0,0,1,1.44.59,3,3,0,0,1,1,1.11,3.77,3.77,0,0,1,.36,1.75,3.51,3.51,0,0,1-.66,2.15,3,3,0,0,1-1.93,1.12l3,5H173.6l-2.5-4.78h-1.3v4.78h-2.64v-12Zm2.64,4.95h1.55l0.75,0a2.37,2.37,0,0,0,.72-0.15,1.25,1.25,0,0,0,.53-0.4,1.21,1.21,0,0,0,.21-0.76,1.27,1.27,0,0,0-.19-0.73,1.24,1.24,0,0,0-.47-0.41,2.08,2.08,0,0,0-.66-0.19,5.3,5.3,0,0,0-.73-0.05H169.8v2.72Z"/><path class="cls-2" d="M56.43,27.39h4.16a8.28,8.28,0,0,1,1.64.16,3.75,3.75,0,0,1,1.35.54,2.77,2.77,0,0,1,.92,1,3.57,3.57,0,0,1,.34,1.65,3.82,3.82,0,0,1-.32,1.64,2.69,2.69,0,0,1-.87,1.06,3.52,3.52,0,0,1-1.31.56,7.71,7.71,0,0,1-1.64.17H58.9v4.36H56.43V27.39Zm2.47,4.74h1.64a3.2,3.2,0,0,0,.64-0.06,1.71,1.71,0,0,0,.55-0.21,1.15,1.15,0,0,0,.4-0.41,1.3,1.3,0,0,0,.15-0.66,1.11,1.11,0,0,0-.2-0.69,1.32,1.32,0,0,0-.51-0.4,2.16,2.16,0,0,0-.69-0.18c-0.25,0-.5,0-0.73,0H58.9v2.65Z"/><path class="cls-2" d="M66.23,27.39h4.33a7.67,7.67,0,0,1,1.62.17,3.87,3.87,0,0,1,1.34.55,2.76,2.76,0,0,1,.92,1,3.53,3.53,0,0,1,.34,1.64,3.28,3.28,0,0,1-.62,2,2.78,2.78,0,0,1-1.8,1.05l2.85,4.72h-3L69.92,34.1H68.7v4.47H66.23V27.39ZM68.7,32h1.46l0.7,0a2.2,2.2,0,0,0,.67-0.14,1.16,1.16,0,0,0,.5-0.37,1.13,1.13,0,0,0,.2-0.71,1.18,1.18,0,0,0-.17-0.68,1.15,1.15,0,0,0-.44-0.39A2,2,0,0,0,71,29.52a5,5,0,0,0-.68,0H68.7V32Z"/><path class="cls-2" d="M75.72,33a6.31,6.31,0,0,1,.45-2.43,5.32,5.32,0,0,1,1.26-1.86,5.54,5.54,0,0,1,1.91-1.18,7.32,7.32,0,0,1,4.84,0,5.56,5.56,0,0,1,1.91,1.18,5.35,5.35,0,0,1,1.26,1.86,6.8,6.8,0,0,1,0,4.87,5.34,5.34,0,0,1-1.26,1.86,5.54,5.54,0,0,1-1.91,1.18,7.34,7.34,0,0,1-4.84,0,5.53,5.53,0,0,1-1.91-1.18,5.32,5.32,0,0,1-1.26-1.86A6.31,6.31,0,0,1,75.72,33Zm2.56,0a4.11,4.11,0,0,0,.25,1.45,3.31,3.31,0,0,0,.7,1.14,3.22,3.22,0,0,0,1.1.75,3.95,3.95,0,0,0,2.86,0,3.22,3.22,0,0,0,1.1-.75,3.31,3.31,0,0,0,.7-1.14,4.36,4.36,0,0,0,0-2.88,3.29,3.29,0,0,0-.7-1.15,3.21,3.21,0,0,0-1.1-.75,3.95,3.95,0,0,0-2.86,0,3.2,3.2,0,0,0-1.1.75,3.29,3.29,0,0,0-.7,1.15A4.13,4.13,0,0,0,78.28,33Z"/><path class="cls-2" d="M95.1,34.83a8.21,8.21,0,0,1-.13,1.5,3.36,3.36,0,0,1-.51,1.29,2.67,2.67,0,0,1-1.08.9,4.26,4.26,0,0,1-1.84.34,3.87,3.87,0,0,1-2.25-.63,3,3,0,0,1-1.19-2l2.26-.55a1.06,1.06,0,0,0,.37.7,1.08,1.08,0,0,0,.73.28,1,1,0,0,0,.66-0.21,1.25,1.25,0,0,0,.35-0.53,2.53,2.53,0,0,0,.13-0.69c0-.25,0-0.48,0-0.69V27.39H95.1v7.44Z"/><path class="cls-2" d="M97.16,27.39h7.6v2.27H99.62v2.08h4.85V34H99.62V36.3H105v2.28H97.16V27.39Z"/><path class="cls-2" d="M114.18,30.29a2.41,2.41,0,0,0-.89-0.68,3,3,0,0,0-1.23-.24,3.07,3.07,0,0,0-2.32,1,3.49,3.49,0,0,0-.68,1.15,4.36,4.36,0,0,0,0,2.88,3.6,3.6,0,0,0,.67,1.14,3,3,0,0,0,1,.75,2.91,2.91,0,0,0,1.24.27,2.78,2.78,0,0,0,1.34-.32,2.67,2.67,0,0,0,1-.88l2.05,1.53a4.28,4.28,0,0,1-1.8,1.47,5.59,5.59,0,0,1-2.25.47,6.91,6.91,0,0,1-2.42-.41A5.53,5.53,0,0,1,108,37.27a5.32,5.32,0,0,1-1.26-1.86,6.79,6.79,0,0,1,0-4.87A5.32,5.32,0,0,1,108,28.69a5.54,5.54,0,0,1,1.91-1.18,6.91,6.91,0,0,1,2.42-.41,6,6,0,0,1,1,.09,5.44,5.44,0,0,1,1,.28,4.57,4.57,0,0,1,1,.51,3.8,3.8,0,0,1,.82.77Z"/><path class="cls-2" d="M119.7,29.57h-3.19V27.39h8.85v2.18h-3.19v9H119.7v-9Z"/><path class="cls-2" d="M21.71,30.65h-3V17.44h3v5.27H26V17.44h3V30.65H26v-5.3H21.71v5.3Z"/></svg>